<svg enable-background="new 0 0 63.665 63.665" version="1.1" viewBox="0 0 63.665 63.665" xmlns="http://www.w3.org/2000/svg">
 <g fill="#96b5e2">
  <g fill="#96b5e2">
   <polygon points="44.353 21.586 44.423 21.58 44.416 21.58"/>
   <polygon points="37.779 18.016 37.779 18.017 37.775 18.01"/>
   <path d="m42.272 25.146c0.011-6e-3 0.018-0.011 0.018-0.011s-0.011 7e-3 -0.018 0.011z"/>
   <path d="m37.208 18.916c7e-3 0.011 0.013 0.021 0.018 0.029-1e-3 -2e-3 -3e-3 -4e-3 -3e-3 -6e-3 -4e-3 -7e-3 -0.01-0.015-0.015-0.023z"/>
   <polygon points="14.888 18.192 14.89 18.189 14.88 18.198"/>
   <path d="m59.498 11.52h-55.331c-2.298 0-4.167 1.893-4.167 4.221v32.182c0 2.327 1.869 4.222 4.167 4.222h55.331c2.298 0 4.167-1.893 4.167-4.222v-32.182c0-2.328-1.87-4.221-4.167-4.221zm2.534 24.695c-0.034 0.042-0.194 0.126-0.194 0.126s0.043 0.068-0.05 0.059c-0.094-8e-3 -0.194 0.076-0.194 0.076l-0.011 0.025-0.039 0.085s-0.145 0.126-0.354 0.276c-0.212 0.153-0.145-0.066-0.145-0.066s0.094-0.086 0.177-0.136c0.085-0.051-4e-3 -0.142-0.032-0.151-0.178-0.06-0.076-0.126 0.032-0.126 0.11 0 0.085-0.035 0.118-0.085 0.033-0.051 0.134-0.186 0.134-0.186s0-0.075 0-0.186c0-0.108 0.018-0.354 0.018-0.429 0-0.074 0.062 0.018 0.09 0.068l3e-3 6e-3c0.024 0.052 0.059 0.041 0.093 0.076 0.034 0.034 0.042 0.066 0.042 0.117 0 0.052-0.051 0.052-0.051 0.052s0 0.041-0.041 0.092c-0.043 0.051 0.016 0.068 0.016 0.068l0.118-0.094-0.05 0.153s8e-3 0.066 0.033 0.092c0.024 0.025 0.033 0.034 0.084 0.034s0.051-9e-3 0.118-0.042c0.067-0.034 0.142-0.026 0.142-0.026s-0.024 0.08-0.057 0.122zm-32.034-22.602 0.012-0.01 0.039-0.036h0.148l0.043 0.03 0.072-0.021 0.117-0.038 0.109 0.017 0.025 0.029 0.122-8e-3 0.105-0.018 0.072 4e-3v8e-3l0.08-0.017 0.127 0.017 0.084-4e-3 0.014 0.036 2e-3 6e-3 0.019-6e-3 0.095-0.031s0.055 0.019 0.095 0.031c0.012 4e-3 0.026 8e-3 0.033 0.01 0.025 9e-3 0.097 0.025 0.117 0.03 0.021 4e-3 0.143-0.013 0.143-0.013l0.076 0.068s0.072 0.021 0.084 0.029 0.055 0.084 0.055 0.084l-3e-3 2e-3c9e-3 5e-3 0.019 0.01 0.028 0.015 0.109 0.06-0.05 0.109-0.025 0.109s0.261-8e-3 0.319-0.017c0.06-8e-3 0.253-0.033 0.497-0.033s0.235 0.067 0.235 0.067-0.066 0.059-0.177 0.067c-0.109 8e-3 -0.177 0.042-0.253 0.042s-0.144 0.126-0.456 0.21c-0.311 0.083-0.303 0.135-0.303 0.135s0.235 0.093 0.278 0.109c0.042 0.018-0.101 0.05-0.303 0.05s-0.076 0.103 0.101 0.103 0.084 0.118 0.084 0.118-0.219 0.083-0.102 0.083c0.118 0 0.025 0.05-0.076 0.11-0.058 0.034-0.152 0.034-0.212 0.028 0.043 0.015 0.092 0.041 0.086 0.073-9e-3 0.051-0.101 0-0.169 0h-0.245c-0.135 0-0.235 0.025-0.278 0.025-0.042 0 0.05 0.058 0.143 0.1s0.109 0.035 0.169 0.092c0.06 0.059 0.05 0.059 0.134 0.152s-0.017 0.119-0.168 0.119-0.186-0.06-0.194-0.119c-9e-3 -0.06-0.144 9e-3 -0.144 9e-3s-0.194 0.101-0.092 0.109c0.101 8e-3 0.438 0.075 0.48 0.075 0.043 0 0.093-0.017-0.161 0.042-0.252 0.06-0.538 0.169-0.614 0.169s-0.152 0.058-0.336 0.101c-0.186 0.043-0.169 0.025-0.345 0.06-0.177 0.034-0.068 0.076-0.203 0.152s-0.135 0.084-0.413 0.193c-0.277 0.109-0.21 0.017-0.346 0.017-0.134 0-0.193 0.092-0.227 0.092s0 0.052 0 0.134c0 0.083-0.034 0.102-0.202 0.211s-0.177 0-0.16 0.067c0.017 0.068-0.076 0.161-0.076 0.161s-0.097 0.163-0.157 0.23l-0.135 0.101c-0.142 0-0.193 0-0.235-0.05-0.042-0.051-0.059-0.11-0.084-0.11s-0.109 9e-3 -0.236-0.025c-0.126-0.034-0.126-0.109-0.203-0.177-0.075-0.068-0.016-0.287-0.025-0.404-8e-3 -0.118-0.033-0.167-0.05-0.379-0.017-0.211 0.202-0.328 0.202-0.328s0.236-0.084 0.304-0.093c0.067-9e-3 0.134-0.126 0.109-0.126s-0.202-0.025-0.303-0.077c-0.101-0.051 0.018-0.092 0.109-0.092 0.093 0 0.253 0.076 0.253 0.076s-0.101-0.161-0.109-0.22c-8e-3 -0.058-0.118 0.05-0.278 0.068-0.16 0.017-0.118-0.102-0.118-0.102s0.16-0.017 0.244-0.101-9e-3 -0.21-0.017-0.328c-8e-3 -0.119-0.051-0.101-0.262-0.194-0.21-0.092-0.261 0.035-0.455 0.035s-0.144-0.025-0.396-0.076c-0.253-0.051 0.371-0.177 0.371-0.177s-0.27-0.017-0.497-0.017-0.067-0.126 0.186-0.126c0.252 0 0.438-0.109 0.632-0.109s0.134-0.093-9e-3 -0.118 0.573-0.16 0.573-0.16 0.177-9e-3 0.194-0.035c0.018-0.025 0.219-0.084 0.287-0.084h0.472s0.134 0.043 0.134 0.043l0.134-0.016 0.093-0.09 0.134-0.025 0.097-0.042 0.021 0.025 0.084 5e-3 0.071-0.025 0.051 4e-3 0.105-0.076 0.047 0.013 0.13-9e-3 0.059 0.021 0.097-0.046 0.037-0.024 0.03-0.019 0.118 4e-3 0.017 0.015 0.015 0.011zm26.313 23.193c0-0.094 0.143-0.094 0.185-0.043 0.041 0.051 0.024 0.043 0.127 0.043 0.101 0 0.244-0.085 0.244-0.085s0.059-0.041 8e-3 0.085-0.255 0.344-0.33 0.344c-0.076 0-0.144 0.102-0.261 0.102-0.118 0-0.01-0.235 0.016-0.261 0.027-0.024 0.011-0.093 0.011-0.185zm0.504-0.414-0.134-0.169-0.27 0.151-0.085-0.033-0.066-0.068-0.151-0.065-0.219-0.102 0.101-0.134-0.018-0.237h-0.1l0.083-0.202c-0.201 0.152-0.218 0.051-0.218 0.051 0.135-0.032 0.218-0.236 0.218-0.236l0.019-0.184-0.22 0.202-0.287 0.186s-0.032-0.169-0.032-0.271-0.152-0.253-0.203-0.27-0.168-0.017-0.253-0.068c-0.084-0.049-0.286-0.033-0.539 0.102-0.252 0.134-0.286 0.05-0.286 0.05-0.488-0.017-0.388 0.253-0.574 0.338-0.186 0.084-0.236 0-0.438 0s-0.472 0.169-0.606 0.202c-0.136 0.032-0.186 0.017-0.303-0.068-0.118-0.084 0.017-0.219 0.017-0.219s0.117-0.033 0.201-0.134c0.085-0.102 0-0.388 0-0.488 0-0.102-0.051-0.186-0.051-0.388 0-0.203-0.05-0.338 0.051-0.422 0.102-0.085-0.051-0.118-0.017-0.354 0.033-0.236 0.169-0.202 0.186-0.271 0.017-0.067 0.051-0.236 0.236-0.32 0.186-0.085 0.237-0.168 0.354-0.186 0.118-0.017 0.32-0.101 0.472-0.101s0.168-0.152 0.235-0.152c0.068 0 0.185-0.118 0.185-0.202s0.153-0.354 0.153-0.354l0.102 0.202 0.032-0.169 0.085 0.017 0.084-0.118s0.051-0.152 0.118-0.235c0.067-0.084 0.185-0.052 0.252-0.084 0.067-0.035 0.086-0.102 0.22-0.052 0.136 0.052 0.084 0.203 0.084 0.203s0 0 0.235 0c0.236 0 0.035-0.066 0.017-0.203-0.017-0.134 0.086-0.218 0.254-0.286 0.167-0.067 0.1-0.017 0.236-0.017 0.135 0 0.05-0.252 0.152-0.167 0.1 0.084 0.319 0.101 0.421 0.101 0.101 0 0.151 0.017 0.285 0.068 0.137 0.051 0 0.068-0.134 0.152-0.135 0.084-0.135 0.068-0.101 0.152 0.033 0.084-0.085 0.084-0.085 0.084s-0.067 0.051 0.051 0.152 0.084 0.101 0.201 0.203c0.118 0.101 0.085 0.017 0.219 0.117 0.136 0.102 0.052 0.084 0.187 0.135 0.135 0.05 0.135-0.05 0.252-0.152 0.118-0.101 0.085-0.354 0.085-0.472 0-0.119 0.033-0.253 0.118-0.556 0.084-0.303 0.168-0.034 0.168-0.034l0.102 0.606c0.084-0.118 0.201 0.118 0.201 0.118l0.052 0.775s0.235 0.102 0.404 0.27c0.169 0.169-0.017 0.456 0.051 0.388 0.066-0.067 0.185-0.034 0.151 0.084-0.033 0.116 0.033 0.169 0.033 0.169 0.236 0.336 0.118 0.707 0.118 0.707 0.201 0.219-0.186 0.656-0.404 0.893-0.219 0.237-0.236 0.237-0.287 0.237-0.05 0-0.118 0.184-0.369 0.388-0.254 0.203-0.22 0.287-0.338 0.488-0.117 0.202-0.151-0.017-0.371 0.051-0.22 0.067-0.322 0.201-0.322 0.201zm-7.452-11.188c-0.023-0.18-0.091-0.09-0.112-0.203-0.023-0.113-0.158-0.147-0.214-0.192-0.041-0.032-0.07-0.047-0.092-0.071-7e-3 -8e-3 -0.015-0.018-0.021-0.029-0.021-0.043-0.111-0.179-0.111-0.179s-0.191 0.021-0.227 0.021c-0.023 0-0.069 0.012-0.136 0.023-0.026 4e-3 -0.056 8e-3 -0.088 0.011-0.113 0.012-0.136 0.08-0.226 0.08s-0.067 0.157-0.09 0.235c-0.022 0.078-0.111 0.102-0.169 0.089-0.056-0.012-0.077 0.101-0.077 0.101s-0.034 0.09-0.091 0.113c-0.057 0.022-0.112 0.089-0.157 0.157-0.045 0.067-0.136 0.111-0.146 0.202-0.011 0.09-0.124 0.202-0.259 0.202-0.134 0-0.066 0.191-0.066 0.281s0.055 0.169 0.055 0.281c0 0.113-0.067 0.101-0.067 0.213 0 0.111 0.022 0.102 0.022 0.214 0 0.111-0.102 0.146-0.134 0.19-0.034 0.045-0.08 0.113-0.08 0.113s0 0.134-0.179 0.179-0.258-0.416-0.291-0.551c-0.034-0.134-0.237-0.359-0.248-0.527-0.01-0.169-0.156-0.338-0.214-0.45-0.055-0.112-0.111-0.292-0.145-0.46s-0.044-0.46-0.089-0.686c-0.046-0.224-0.046 0.103-0.191 0.191-0.146 0.09-0.247-0.011-0.247-0.011l-0.203-0.258c0.214-0.012 0.237-0.136 0.237-0.136-0.347 0.077-0.29-0.094-0.393-0.144-0.018-9e-3 -0.04-0.014-0.068-0.014-0.201 0-0.169-0.101-0.234-0.224-0.068-0.124-0.091-0.011-0.416-0.022-0.208-8e-3 -0.32 4e-3 -0.403 0.013-0.047 5e-3 -0.084 9e-3 -0.125 9e-3 -0.113 0-0.28-0.079-0.494-0.113s-0.203-0.235-0.27-0.303c-0.068-0.067-0.271 0.136-0.439 0.102-0.169-0.033-0.269-0.213-0.269-0.213-0.227-0.078-0.328-0.281-0.417-0.449-0.09-0.169-0.291 0.112-0.291 0.19 0 0.024 0.014 0.059 0.036 0.098 0.054 0.095 0.157 0.22 0.244 0.306 0.122 0.124 0.022 0.112 0.101 0.258 0.066 0.123 0.211 0.286 0.29 0.313 0.015 6e-3 0.026 7e-3 0.035 1e-3 0.057-0.033 0.28 0 0.371-0.045 0.089-0.044 0.326-0.348 0.326-0.348s6e-3 0.115 0.025 0.199c5e-3 0.024 0.012 0.045 0.02 0.06 0.032 0.068 0.112 0.113 0.168 0.158s0.157 0.032 0.19 0.032c0.034 0 0.089 0.101 0.134 0.147 0.045 0.044 0.045 0.033 0.079 0.09 0.035 0.057 0.045 0.191-0.089 0.303-0.135 0.112-0.08 0.112-0.18 0.112-0.102 0-0.034 0.135-0.034 0.168v0.124s-0.146 0.045-0.156 0.146c-0.013 0.101-0.058 0.079-0.202 0.079-0.147 0 0.022 0.157-0.034 0.168s-0.135 0.011-0.224 0.011h-0.126-0.011c-0.032 0-0.09 0.09-0.101 0.169-0.011 0.08-0.09 0.08-0.202 0.135s-0.124 0.134-0.27 0.134c-0.147 0-0.158 0.158-0.158 0.158s-0.234 0.089-0.427 0.089c-0.19 0-0.057 0.068-0.224 0.124-0.169 0.056-0.159 0-0.214-0.068-0.058-0.067-0.058-0.123-0.079-0.27-0.023-0.146 0-0.225 0-0.326 0-0.06 4e-3 -0.09-0.011-0.126-8e-3 -0.025-0.025-0.051-0.058-0.087-0.078-0.09-0.19-0.112-0.28-0.326-0.089-0.214-0.146-0.168-0.292-0.281-0.146-0.112-0.101-0.46-0.101-0.46-0.068-0.27-0.157-0.202-0.271-0.315-0.111-0.112-0.045-0.213-0.214-0.438-0.169-0.224-0.124-0.124-0.225-0.291-0.035-0.06-0.06-0.153-0.076-0.251-0.03-0.177-0.036-0.373-0.036-0.423 0-0.079-0.011-0.135-0.011-0.225 0-0.089 0.067-0.112 0.123-0.157 5e-3 -3e-3 7e-3 -7e-3 0.012-0.01 0.044-0.042 0.044-0.095 0.056-0.146 0.011-0.056 0-0.303 0-0.371 0-0.03-3e-3 -0.048-9e-3 -0.06-0.011-0.015-0.026-0.02-0.06-0.02-0.056 0-0.169 0-0.246-0.021-0.079-0.023-0.023 0.112-0.157 0.123-0.135 0.011-0.123 0-0.226-0.09-0.1-0.09-0.19-0.021-0.19-0.021s-0.045 0.056-0.078 0.089c-0.034 0.033-0.102-0.012-0.102-0.012l-0.214-0.023s-0.044-0.101-0.066-0.157c-0.023-0.056-0.068-0.067-0.124-0.067-0.058 0-0.103-0.102-0.124-0.157-0.022-0.056-0.045-0.123-0.045-0.269 0-0.086 7e-3 -0.109 0.014-0.115-0.03-8e-3 -0.134-0.04-0.171-0.087-5e-3 -5e-3 -9e-3 -0.01-0.013-0.013-0.04-0.033-0.076 0.015-0.18 0.035-0.11 0.023 0 0-0.056 0.068-0.057 0.067-0.068 0.101-0.124 0.021-0.057-0.079-0.033 0.057-0.033 0.057l0.089 0.157 0.169 0.191-0.068 0.067-0.145-0.067 0.089 0.112-0.056 0.011 0.011 0.113s-0.134-0.011-0.179-0.023c-0.045-0.011-0.124-0.068-0.124-0.068l-0.074-0.119s-0.012-0.124-0.035-0.191c-0.017-0.056-0.021-0.086-0.059-0.091-8e-3 -1e-3 -0.019-1e-3 -0.03 1e-3 -0.067 0.011-0.112-0.179-0.135-0.213-0.022-0.034-0.011-0.258-0.011-0.258l-0.21-0.168-0.016-0.011s-0.089 0-0.134-0.012c-0.045-0.011-0.068-0.068-0.157-0.101-0.09-0.034-0.136-0.146-0.168-0.169-0.035-0.022-0.091-0.068-0.182-0.179-0.026-0.033-0.043-0.048-0.056-0.054-0.031-0.013-0.042 0.031-0.113 0.031-0.101 0-0.044 0.203-0.044 0.203s0.057 0.056 0.168 0.135c0.112 0.078 0.125 0.135 0.125 0.135l0.056 0.124 0.168 0.055s0.012 0.079 0.044 0.102c0.035 0.022 0.112 0 0.326 0.157 0.214 0.158 0.079 0.27-0.034 0.124-0.112-0.146-0.213-0.011-0.167 0.023 0.044 0.035 0.179 0.191 0.111 0.191s-0.102 0.067-0.146 0.146-0.167 0.09-0.167 0.09l-0.079 0.202s-0.36-0.146-0.393-0.19c-0.034-0.045 0.01-0.101 0.122-0.101 0.113 0 0.113-0.022 0.292-0.022s0.056-0.08 0.157-0.101c0.102-0.023-0.033-0.079-0.146-0.281-0.111-0.202-0.213-0.146-0.313-0.18-0.102-0.034-0.19-0.124-0.314-0.225s-0.113-0.055-0.113-0.19c0-0.136-0.068-0.136-0.259-0.181-0.157-0.037-0.146 0.019-0.163 0.071-4e-3 0.01-0.01 0.022-0.017 0.03-0.045 0.057-0.077 0.125-0.18 0.146-0.101 0.023-0.247-0.089-0.393-0.089s-0.113 0.157-0.113 0.157l-0.067 0.235s-0.089 0.045-0.179 0.045-0.113 0.112-0.237 0.213c-0.123 0.101 0.012 0.314-0.068 0.314-0.077 0-0.089 0.214-0.146 0.203-0.056-0.011-0.134 0.124-0.134 0.124s-0.078 0-0.202 0-0.146 0.033-0.259 0.033c-0.111 0-0.067 0.113-0.134 0.124-0.067 0.012-0.078-0.01-0.112-0.136-0.034-0.124-0.146-0.101-0.191-0.066-4e-3 4e-3 -9e-3 7e-3 -0.012 0.01-0.024 0.016-4e-3 -0.01-0.122-0.01-0.135 0-0.113-0.034-0.113-0.034s-0.011-0.28-0.067-0.28-0.011-0.111 0.022-0.169c0.034-0.056 0.135-0.112 0.135-0.292 0-0.104-8e-3 -0.184-0.014-0.234-5e-3 -0.038-8e-3 -0.057-8e-3 -0.057-0.124-0.179 0.225-0.247 0.225-0.247l0.808 0.101s0.048-0.024 0.1-0.041c0.027-8e-3 0.058-0.015 0.082-0.015 0.066 0 0.032-0.236 0.032-0.326 0-0.089-0.022-0.168-0.032-0.202-0.012-0.033-0.103-0.123-0.227-0.236s-0.201 0-0.201-0.045 0-0.168 0.055-0.179c0.058-0.012 0.227 0.022 0.227 0.022s0.077-0.011 0.156-0.011 0.045-0.023 0.022-0.113c-0.022-0.09-0.012-0.111 0.067-0.033s0.213 0.023 0.213 0.023 0.022-0.089 0.08-0.089c0.057 0 0.066-0.09 0.066-0.147 0-0.012 9e-3 -0.022 0.019-0.03-0.043 0.014-0.104 0.023-0.14 0.027-0.067 8e-3 -0.159 0.017-0.253 0.017-0.093 0-0.101 8e-3 -0.186 8e-3 -0.084 0-0.066 0.025-0.21 0.025-0.143 0-0.219 0.042-0.219 0.042 0.017-0.152 0.126-0.202 0.236-0.194 0.108 8e-3 0.159-0.126 0.159-0.126-0.084 0.134-0.193 0.034-0.243 0.034-0.051 0-0.119-0.051-0.109-0.084 8e-3 -0.034 0.135 0 0.185-0.026 0.051-0.025-0.093-0.134-0.051-0.134s0.034 0 0.186-0.076c0.151-0.076 0.025-0.101 0.025-0.101s-0.061-0.076-0.061-0.167c0-0.093-0.075-0.051-0.075-0.051s-0.16 0.035-0.193 0.035c-0.034 0 0.109-0.109 0.109-0.109h-0.101s0.075-0.042 0.126-0.059c0.049-0.017-0.11 0-0.152 0s0.066-0.093 0.066-0.093-0.134-0.017-0.134-0.076 0.016-0.101 0.092-0.168c0.077-0.067 0.136-0.168 0.136-0.168l0.278 0.025s-0.06 0.051-0.117 0.084c-0.061 0.033-0.086 0.101-0.077 0.126s0.067-0.05 0.135-0.05 0.228 0.041 0.228 0.041-8e-3 0.119-0.151 0.186c-0.145 0.068-0.152 0.084-0.152 0.084s0.067-0.042 0.219 8e-3c0.151 0.05 0.076 0.219 0.076 0.219s0.043-0.043 0.126 0.025c0.084 0.067 0.033 0.085 0.067 0.193 0.033 0.109-0.051 0.084 8e-3 0.136 0.06 0.05 0.145-0.051 0.212-0.026 0.067 0.026 0.033 0.035 0 0.118-0.034 0.084-0.068 0.051-0.136 0.152-0.067 0.101 0 0 0.102 0.058 0.032 0.019 0.036 0.033 0.023 0.046 0.045-0.019 0.104-0.03 0.125-0.051 0.032-0.032-0.017-0.065 0.125-0.097 6e-3 -1e-3 0.013-3e-3 0.021-4e-3 0.167-0.034 0.1-0.057 0.179-0.203 0.077-0.146 0.09-0.044 0.337-0.123 0.011-4e-3 0.021-7e-3 0.032-0.012 0.207-0.068 0.149-0.078 0.192-0.078 0.045 0 0.078-0.146 0.078-0.146s-0.112-0.134-0.123-0.18c-0.012-0.045 0-0.112 0-0.158 0-0.044 0.135-0.056 0.135-0.056s0.044-0.035 0.089-0.079 0.101-0.056 0.157-0.056-0.012 0.078-0.045 0.158c-0.034 0.079 0.067 0.022 0.102 0.067 0.032 0.045 0.011 0.045-0.079 0.101-0.09 0.057-0.102 0.034-0.123 0.146-0.021 0.113 0.068 0.068 0.101 0.102 0.033 0.033 0.102 0.056 0.146 0.056s0.134-0.023 0.169-0.056c0.032-0.034 0.145 0.056 0.145 0.056l0.083 0.023 0.041 0.01s0.179-0.057 0.269-0.089c0.091-0.034 0.258-0.079 0.258-0.079l0.091 0.09s0.337-0.011 0.236-0.045c-0.056-0.019 3e-3 -0.042 0.056-0.064 0.043-0.019 0.081-0.039 0.057-0.058-0.057-0.045 0.022-0.09-0.012-0.136-0.032-0.045 0.045-0.011-0.032-0.124-0.08-0.113-0.09-0.125 0.056-0.181s0.247 0.113 0.247 0.113 0.022 0.068 0.112 0.056c0.073-9e-3 0.093-0.102 0-0.19-0.021-0.02-0.047-0.039-0.08-0.057-0.179-0.101 0.124-0.235 0.124-0.235l0.416-0.012 0.068-0.045 0.135-0.079-0.123-0.034h-0.124s-0.057 0.067-0.09 0.079c-0.034 0.011-0.079 0-0.113 0s-0.146 0.023-0.18 0.023h-0.202c-0.058 0-0.103-0.068-0.169-0.079-0.067-0.011-0.067-0.056-0.067-0.056s-0.033-0.158-0.067-0.292 0.146-0.202 0.146-0.202 0.27-0.213 0.304-0.213c0.033 0 0.011-0.045 0.056-0.103 0.033-0.042-0.093-0.059-0.171-0.064-0.024-2e-3 -0.046-3e-3 -0.054-3e-3 -0.034 0-0.146 0.033-0.203 0.033-0.056 0-0.066 0.056-0.134 0.102-0.067 0.044 0.057 0.078 0.057 0.078s-0.089 0.079-0.224 0.169c-0.136 0.089-0.361 0.111-0.326 0.348 0.033 0.235 0.224 0.19 0.257 0.314 0.035 0.124-0.269 0.225-0.269 0.225s-0.034 0.135-0.023 0.281c0.012 0.146-0.067 0.168-0.146 0.168s-0.169 0-0.179 0.045c-0.013 0.046-0.045 0.068-0.113 0.068-0.067 0-0.112-0.068-0.112-0.113s0.033-0.068-0.022-0.225c-0.058-0.157-0.022-0.157-0.146-0.212-0.124-0.056 0.136-0.124 0.023-0.124h-0.035c-0.078-1e-3 -0.078-0.01-0.089-0.09-0.012-0.089-0.09 0.103-0.135 0.114-0.046 0.01-0.079 0.101-0.292 0.134-0.214 0.033-0.203-0.056-0.203-0.056l-0.09-0.157 0.146-0.191-0.179 0.079-0.022-0.191 0.271-0.022-0.214-0.011s-0.044-0.068-0.044-0.101c0-0.035 0.056-0.035 0.134-0.067 0.077-0.034 0.101-0.034 0.134-0.057 0.033-0.022 0.057-0.169 0.057-0.169s0.169 0 0.202 0h0.101s0.078-0.135 0.135-0.135c0.056 0 0.146-0.123 0.189-0.134 0.045-0.012 0.08-0.135 0.08-0.135l0.045-0.123s0.102-0.101 0.134-0.112c0.033-0.012 0.102-0.023 0.113-0.103 0.011-0.078 0.056-0.134 0.089-0.111 0.034 0.023 0.203-0.011 0.203-0.011s0.022-0.124 0.056-0.136c0.034-0.011 0.146-0.033 0.146-0.089 0-0.057 0.057 0 0.146 0 0.091 0 0.101-0.022 0.101-0.022s0.101-0.023 0.136-0.023c0.033 0 0.102 0.035 0.102 0 0-0.033 0.045-0.089 0.146-0.123 0.101-0.033 0.157-0.011 0.157-0.011l-0.045 0.146 0.124-0.102-0.015 0.107 0.101-0.102 0.113-0.067 0.011 0.124 0.023-0.056s0.123 0.023 0.168 0.056c0.046 0.034 0.102 0.045 0.102 0.045s0 0-0.045 0 0.045 0.101 0.045 0.101 0.214-0.067 0.259-0.035c0.045 0.035 0.079 0.057 0.235 0.057 0.158 0 0.327 0.023 0.416 0.112 0.09 0.09 0.169 0.09 0.304 0.102 0.135 0.011 0.225 0.112 0.225 0.213s-0.27 0.146-0.46 0.135c-0.192-0.011-0.395-0.1-0.439-0.1s-0.169-0.035-0.079 0.033 0.214 0.09 0.214 0.09-0.045 0.067 0.023 0.146 0.033 0.123 0.033 0.123 0.09 0.012 0.135 0.012c0.044 0 0.111 0.045 0.19 0.112 0.078 0.067 0.145-0.034-0.034-0.112s-0.023-0.181 0.067-0.113c0.089 0.068 0.28 0.089 0.338 0.068 0.056-0.023-0.103-0.113-0.067-0.169 0.032-0.056 0.246-0.158 0.324-0.158s0.136 0.068 0.136 0.068 0.057 0.046 0.057-0.022c0-0.067-0.136-0.124-0.159-0.258-0.021-0.136 0.013-0.136 0.146-0.136 0.135 0 0.314 0.136 0.157 0.136s-0.09 0.078-0.032 0.123c0.056 0.045 0.28 0.023 0.28 0.023l0.045-0.101s0.112-0.112 0.179-0.146c0.068-0.034 0.182-0.045 0.182-0.045s0.089-0.045 0.122-0.057c0.033-0.01 0.169-0.044 0.157 0.023-0.011 0.068-0.078 0.113-0.078 0.113l0.191-0.012 0.066-0.068 0.248 0.034s0.079-0.101 0.146-0.101 0.112 0.056 0.112 0.056 0.012 0.113 0.09 0.023c0.078-0.089-0.101-0.146-0.101-0.146s-0.271-0.045-0.214-0.134c0.056-0.091 0.259 0.101 0.259 0.101s0.335-0.023 0.415-0.023c0.079 0 0.168 0 0.303 0.09s0.169 0.023 0.259 0.112c0.089 0.089 0.102 0.057 0.157 0.057s0.01-0.09 0.01-0.09-0.101-0.023-0.123-0.089c-0.021-0.068-0.044-0.034-0.156-0.068-0.113-0.033-0.068-0.089-0.068-0.089s-0.011-0.045-0.089-0.068c-0.08-0.022 0-0.112 0.056-0.112 0.057 0 0.057-0.089 0.023-0.202s0.056-0.124 0.179-0.124c0.124 0 0.314 0.157 0.314 0.157s-0.045 0.158 0.022 0.191c0.067 0.035 0.102 0.067 0.18 0.146s0.034 0.089 0.045 0.18c0.012 0.09 0.078 0.067 0.135 0.101 0.056 0.033 0.089 0.056 0.065 0.18-0.021 0.124-0.393 0.112-0.393 0.112 0.113 0.135 0.36 0.101 0.36 0.101l0.122 0.011s-0.01-0.067 0.023-0.067 0.101-0.1 0.101-0.19c0-0.091-0.111-0.147-0.111-0.147s0.135-0.023 0.246-0.023c0.112 0 0.236 0.214 0.236 0.214l0.158-0.034s-0.158 0.034-0.18-0.111c-0.023-0.147-0.393-0.112-0.528-0.112s-0.124-0.091-0.101-0.169c0.023-0.08-0.023-0.112-0.169-0.169-0.146-0.056 0.033-0.168 0.033-0.168s-0.033-0.146 0.032-0.113c0.068 0.034 0.113 0.134 0.113 0.213s0.033 0.068 0.18 0.068h0.259s-0.349-0.135-0.338-0.168c0.011-0.034 0.101-0.034 0.236-0.045 0.134-0.011 0.201 0.113 0.415 0.147s-0.045-0.135-0.157-0.135c-0.111 0-0.213-0.202-0.213-0.202s0.527 0 0.696 0-0.089-0.068-0.021-0.18c0.066-0.113 0.518-0.203 0.518-0.203s0.201 0.011 0.517 0.011c0.313 0 0.324-0.044 0.224-0.078s0.079-0.146 0.214-0.157c0.134-0.012 0.19 0.078 0.19 0.078s0.157 0 0.27 0.034c0.111 0.033 0.123 0.056 0.123 0.056s0.338-0.021 0.719 0.068c0.383 0.089 0.078 0.235-0.101 0.291-0.094 0.029-0.16 0.089-0.2 0.139 0.02-3e-3 0.044-4e-3 0.077-4e-3 0.235 0 0.395-0.067 0.395-0.067l0.932 0.034 0.012 0.078 0.585 0.023-0.103-0.146s0.495 0.023 0.698 0.079c0.201 0.057 0.278 0.202 0.336 0.271 0.057 0.067 0.359 0.145 0.438 0.135 0.078-0.012-0.034-0.225-0.034-0.225l0.102 0.091s0.112 0.021 0.169 0.021 0.124-0.021 0.124-0.021 0.157-0.012 0.225 0.011c0.067 0.021 0.146 0.021 0.271 0.021s-0.214-0.19-0.214-0.19l0.101-0.023s0.606-0.011 0.73 0.056c0.124 0.068 0.011 0.136 0.011 0.136s0.09-0.011 0.09-0.079c0-0.067 0.191-0.045 0.303-0.045 0.113 0 0.125 0.102 0.125 0.102l0.258 0.012s0.113 0.111 0.281 0.123c0.169 0.012 0.246-0.067 0.427-0.067 0.179 0 0.584 0.101 0.663 0.179 0.078 0.079 0.246 0.068 0.304 0.068h0.493c0.157 0 0.427 0.033 0.472 0.045 0.045 0.011 0.113 0.089 0.282 0.112 0.167 0.023-0.214-0.213-0.214-0.213s0.314 0.023 0.393 0.023 0.539 0 0.785 0.101c0.249 0.101 0.428 0.124 0.606 0.157 0.182 0.034 0.473 0.045 0.63 0.169 0.157 0.123 0.369 0.19 0.369 0.19l-0.156-0.169s0.438 0.067 0.618 0.112c0.179 0.044 0.168 0.067 0.168 0.147 0 0.078-0.202 0.011-0.202 0.011 0.146 0.079 0.235 0.19 0.235 0.19s-0.169-0.011-0.271-0.011c-0.1 0-0.348-0.09-0.415-0.158-0.067-0.067-0.134-0.011-0.291-0.021-0.157-0.011-0.136-0.023-0.181-0.09s-0.214-0.067-0.067 0.045-0.068 0.169-0.236 0.157c-0.168-0.011 0.058 0.068 0.18 0.068 0.124 0 0.213 0.033 0.382 0.168 0.169 0.136 0.281 0.181 0.281 0.181s-0.113-0.023-0.202-0.023c-0.09 0-0.045 0.124-0.27 0.134-0.227 0.011-0.079 0.135-0.158 0.236-0.078 0.101 0 0.157-0.068 0.09-0.065-0.067-0.426-0.012-0.415-0.09 0.013-0.078-0.111 0.18-0.146 0.078-0.032-0.101-0.055 0.012-0.145 0.012-0.089 0-0.158 0.034-0.102 0.124 0.058 0.089 0.058 0.068 0.058 0.168s0.077 0.078 0.156 0.044 0.124 0.09 0.124 0.09 0.012 0.135 0.167 0.135c0.158 0 0.057 0.056 0.147 0.111 0.09 0.057-0.147-0.022-0.192 0.011-0.045 0.034-0.01 0.067 0.169 0.181 0.179 0.112 0.079 0.146 0 0.146-0.077 0-0.179 0.023-0.09 0.112 0.09 0.09 0.124 0.146 0.124 0.146l-0.153-9e-3c0.021 0.021 0.052 0.055 0.098 0.11 0.19 0.225-0.068 0.281-0.068 0.281l-1.021-0.978s-0.034-0.068-0.022-0.1c0.01-0.034-0.013-0.068-0.035-0.18-0.021-0.112 0.09-0.089 0.124-0.124 0.035-0.033 0.035-0.101 0.035-0.19s-0.058-0.158 0.066-0.213c0.125-0.057 0.012-0.123 0.012-0.123l-0.113-0.192h-0.191l0.067 0.068v0.168s-0.01 0.079-0.156 0.057c-0.146-0.023-0.157-0.18-0.157-0.18l-0.416 0.022s-0.011 0.112-0.011 0.18-0.045 0.124-0.045 0.124l0.09 0.079 0.134 0.079s-0.404 0.045-0.427 0.011c-0.022-0.034 0 0 0.022-0.034 0.023-0.034-0.202-0.078-0.291-0.078-0.09 0-0.182-0.012-0.182-0.012l-0.066 0.078h-0.697c-0.124 0-0.113 0.08-0.124 0.135-0.011 0.057 0 0.101 0.021 0.134 0.023 0.035-0.057 0.068-0.1 0.124-0.045 0.057-0.035 0.068-0.035 0.168 0 0.101-0.079 0.135-0.134 0.192-0.058 0.055-0.023 0.101-0.023 0.101s0.179-0.023 0.235-0.023 0.102 0.112 0.169 0.18c0.068 0.067 0.068-0.034 0.136 0.034 0.068 0.066 0.136 0.01 0.045-0.09-0.09-0.101 0.202-0.044 0.337 0.045 0.134 0.089 0.189 0.101 0.27 0.202 0.024 0.032 0.031 0.04 0.032 0.04 5e-3 8e-3 0.017 0.028 0.046 0.073 0.101 0.157 0.078 0.258 0.134 0.348 0.057 0.09 0.113 0.123 0.203 0.235 0.089 0.113 0.022 0.068 0.011 0.191-0.011 0.124 0.012 0.157 0.012 0.293 0 0.134 0 0.111-0.125 0.314-0.124 0.203-0.124 0.247-0.124 0.281s-0.11 0.124-0.179 0.124c-0.067 0-0.179 0.01-0.201-0.079-0.013-0.05-0.06-0.014-0.098 0.027-0.019 0.019-0.035 0.04-0.047 0.056-8e-3 0.01-0.014 0.019-0.014 0.019s-0.011 0.055-0.023 0.123c-0.01 0.068-0.032 0.079 0.023 0.112 0.057 0.034-0.011 0.135-0.011 0.135s-0.013 0.18-0.146 0.18c-0.135 0-0.045 0.101 0.023 0.123 0.068 0.023 0.18 0.057 0.225 0.112 0.045 0.057 0.068 0.113 0.202 0.226 0.135 0.112 0.101 0.146 0.18 0.27 0.079 0.123 0.011 0.213 0.011 0.213s-0.146 0-0.27 0.033c-0.127 0.031-0.137 0.031-0.171 0.031s-0.067-0.101-0.056-0.225-0.09-0.18-0.135-0.202c-0.044-0.023 0.079-0.034 0.079-0.034s-0.09-0.1-0.123-0.146c-0.034-0.046-0.169-0.012-0.271-0.012s-0.066-0.056-0.066-0.168c0-0.111-0.046-0.146-0.035-0.179 0.013-0.033-0.146-0.068-0.146-0.068s-0.036 0.012-0.072 0.022c-0.024 6e-3 -0.049 0.013-0.062 0.013-0.033 0-0.202 0.045-0.214 0.146-0.011 0.101-0.179 0.01-0.11 0 0.066-0.012 0.066-0.136 0.021-0.136-0.044 0-0.021-0.079 0.023-0.091 0.045-0.011 0-0.134-0.112-0.146-0.113-0.01-0.091 0.103-0.146 0.158-0.058 0.056-0.113 0.056-0.113 0.056v0.113l-0.237-0.012c-0.011 0.134 0.146 0.213 0.227 0.213 0.077 0 0.124-0.012 0.111 0.056-0.011 0.068 0.034 0.135 0.113 0.135 0.078 0 0.045-0.033 0.101-0.078 0.057-0.045 0.102-0.09 0.157-0.012 0.057 0.079 0.068 0 0.146 0s0.057 0.012 0.089 0.09c0.034 0.079-0.045 0.056-0.045 0.056-0.19 0-0.348 0.404-0.291 0.404 0.056 0 0.169 0.045 0.304 0.212 0.134 0.169 0.09 0.214 0.224 0.304s-0.101 0.045-0.101 0.045c0.169 0.023 0.292 0.203 0.258 0.203-0.033 0-0.179 0.101-0.179 0.101 0.214 0 0.282 0.157 0.282 0.192 0 0.033-0.045 0.225-0.09 0.336-0.045 0.112-0.09 0.134-0.102 0.202-0.012 0.067 0 0.101-0.022 0.19-0.022 0.091-0.158 0.225-0.236 0.316-0.079 0.09-0.124 0.247-0.28 0.247-0.158 0-0.259 0.134-0.371 0.146-0.113 0.011-0.168 0.068-0.168 0.068s-0.227 0.045-0.282 0.067c-0.056 0.023 0.011 0.135 0.011 0.179 0 0.045-0.09 0-0.135-0.023-0.045-0.022-0.021-0.089-0.021-0.089s0-0.057-0.012-0.134c-0.01-0.068-0.193-0.019-0.281-4e-3 -0.012 3e-3 -0.025 4e-3 -0.033 4e-3 -0.057 0-0.066 0.112-0.123 0.112s-0.035 0.045-0.045 0.101c-0.012 0.056-0.045 0.068-0.102 0.101-0.055 0.033-0.045 0.135-0.045 0.202s0.114 0.123 0.192 0.212c0.078 0.091 0.146 0.179 0.403 0.405 0.259 0.224 0.192 0.483 0.192 0.663 0 0.179-0.056 0.168-0.157 0.27-0.101 0.101-0.246 0.089-0.246 0.089s0 0.102 0 0.157c0 0.057-0.124 0.103-0.158 0.147-0.033 0.045-0.101 0.079-0.134 0.056-0.034-0.022-0.068-0.191-0.057-0.235 0.012-0.045-0.089-0.035-0.057-0.09 4e-3 -7e-3 4e-3 -0.014 4e-3 -0.02-0.014-0.046-0.165-0.079-0.194-0.059-0.033 0.023-0.079-0.056-0.103-0.157-6e-3 -0.028-0.018-0.06-0.029-0.087-0.031-0.069-0.071-0.126-0.071-0.126l-0.225-0.045-0.022-0.147s-0.146 0.044-0.146 0.135c0 0.03-6e-3 0.074-0.017 0.122-0.019 0.095-0.051 0.205-0.073 0.249-0.033 0.068-0.012 0.213 0.045 0.27s0.102 0.112 0.146 0.213c0.045 0.101 0.022 0.18 0.045 0.247 0.023 0.068 0.214 0.112 0.258 0.112 0.045 0 0.113 0.09 0.214 0.226 0.102 0.135 0.113 0.157 0.113 0.348s0 0.124 0.068 0.225c0.066 0.101 0.01 0.179-0.035 0.179s-0.078 0.023-0.179-0.033c-0.101-0.057-0.191-0.125-0.259-0.237-0.066-0.112-0.055-0.18-0.089-0.235-0.034-0.057-0.124-0.135-0.124-0.236 0-0.1 0.022-0.202-0.056-0.259-0.079-0.056-0.089-0.168-0.112-0.225s-0.146-0.045-0.203-0.146c-0.056-0.101 0.035-0.089 0.035-0.146s-0.035-0.338-0.022-0.439c0.01-0.101 0-0.191-0.035-0.258-0.033-0.067-0.102-0.213-0.112-0.28-0.012-0.068-0.034-0.213-0.034-0.213s-0.056-0.179-0.122-0.258c-0.067-0.078-0.044 0.079-0.271 0.191-0.225 0.112-0.27-0.135-0.213-0.27 0.064-0.138-0.06-0.093-0.081-0.272zm-2.553 19.923-0.494-0.742c-0.153-0.231-0.053-0.42 0.226-0.42h0.023c0.277 0 0.615 0.195 0.754 0.436l0.034 0.061c0.139 0.24 0.362 0.238 0.498-2e-3l0.031-0.055c0.136-0.242 0.469-0.438 0.744-0.438 0.276 0 0.373 0.187 0.218 0.416l-0.492 0.73c-0.154 0.231-0.157 0.604-2e-3 0.835l0.537 0.804c0.154 0.231 0.055 0.418-0.224 0.418h-0.039c-0.278 0-0.615-0.194-0.753-0.436l-0.053-0.094c-0.139-0.24-0.362-0.242-0.5-1e-3l-0.057 0.095c-0.138 0.241-0.477 0.436-0.754 0.436h-0.014c-0.277 0-0.377-0.187-0.222-0.416l0.532-0.793c0.158-0.229 0.159-0.604 7e-3 -0.834zm0.325-18.171c0.024-0.134 0.177 0.194 0.287 0.338 0.108 0.144 0.066 0.337-0.178 0.388-0.244 0.049-0.114-0.7-0.109-0.726zm-3.68 18.171-0.493-0.742c-0.153-0.231-0.054-0.42 0.225-0.42h0.022c0.278 0 0.615 0.195 0.755 0.436l0.035 0.061c0.138 0.24 0.36 0.238 0.498-2e-3l0.029-0.055c0.137-0.242 0.47-0.438 0.746-0.438s0.372 0.187 0.218 0.416l-0.493 0.73c-0.155 0.231-0.156 0.604-2e-3 0.835l0.537 0.804c0.155 0.231 0.056 0.418-0.224 0.418h-0.04c-0.277 0-0.615-0.194-0.753-0.436l-0.054-0.094c-0.136-0.24-0.361-0.242-0.5-1e-3l-0.055 0.095c-0.139 0.241-0.479 0.436-0.755 0.436h-0.014c-0.277 0-0.377-0.187-0.222-0.416l0.533-0.793c0.16-0.229 0.161-0.604 7e-3 -0.834zm-3.355 0-0.492-0.742c-0.154-0.231-0.053-0.42 0.225-0.42h0.023c0.277 0 0.614 0.195 0.753 0.436l0.034 0.061c0.139 0.24 0.362 0.238 0.498-2e-3l0.031-0.055c0.136-0.242 0.47-0.438 0.745-0.438 0.276 0 0.374 0.187 0.218 0.416l-0.493 0.73c-0.154 0.231-0.155 0.604-2e-3 0.835l0.538 0.804c0.153 0.231 0.054 0.418-0.225 0.418h-0.04c-0.277 0-0.615-0.194-0.752-0.436l-0.054-0.094c-0.137-0.24-0.362-0.242-0.501-1e-3l-0.056 0.095c-0.138 0.241-0.476 0.436-0.754 0.436h-0.013c-0.276 0-0.378-0.187-0.222-0.416l0.533-0.793c0.158-0.229 0.158-0.604 6e-3 -0.834zm0.915-12.475c-0.066-0.136-0.101-0.146-0.101-0.304s-0.021-0.179 0.034-0.258c0.056-0.08 0.213-0.135 0.258-0.204 0.045-0.067 0.214-0.043 0.269-0.134 0.057-0.09 0.102-0.124 0.169-0.213s0.101-0.09 0.101-0.157c0-0.068 0.034-0.237 0.034-0.237s-0.023-0.089 0.122 0.079c0.146 0.169 0.146 0.112 0.168 0.292 0.023 0.179 0.034 0.314 0 0.337s-0.156-0.146-0.145-0.023c0.011 0.125 0.056 0.157 0.056 0.157s0.079 0.09-0.032 0.09c-0.113 0-0.103 0.078-0.08 0.213l-0.012 0.033-0.449 1.326s-0.101 0.101-0.179 0.101c-0.079 0-0.18 0.135-0.314 0s-0.157-0.113-0.134-0.214c0.021-0.101 0.066-0.179 0.021-0.225-0.045-0.045-0.135-0.056-0.079-0.191 0.056-0.134 0.079-0.1 0.157-0.246 0.08-0.145 0.204-0.088 0.136-0.222zm1.214-6.089c-0.078 0.101-0.101 0.584-0.235 0.82-0.136 0.236-0.157 0.348-0.202 0.45-0.045 0.101-0.157 0.258-0.214 0.292-0.056 0.035-0.213 0.236-0.236 0.281-0.022 0.045-0.135 0.057-0.169 0.089-0.034 0.034-0.201 0.146-0.236 0.213-0.034 0.066-0.179 0.247-0.201 0.281-0.023 0.033-0.146 0.146-0.146 0.146s-3e-3 5e-3 -8e-3 0.013c-0.027 0.04-0.108 0.16-0.183 0.177-0.09 0.022 0 0.181-0.068 0.226-0.065 0.044-0.077 0.089-0.077 0.213v8e-3c-6e-3 0.11-0.111 0.019-0.101 0.172 0.011 0.157 0.034 0.224 0.078 0.292 0.045 0.068 0.013 0.136 0.045 0.293 0.019 0.087 0.062 0.208 0.096 0.299 0.028 0.074 0.051 0.128 0.051 0.128s-0.022 0.045-0.022 0.292-0.034 0.247 0 0.371c0.032 0.124 0.022 0.135-0.057 0.249-0.08 0.112-0.19 0.179-0.246 0.225-0.058 0.045-0.247 0.1-0.292 0.145-0.046 0.044-0.068 0.124-0.136 0.192-0.067 0.066-0.135 0.124-0.214 0.169-0.077 0.044-0.258 0.077-0.124 0.213 0.137 0.135 0.158 0.281 0.137 0.505-0.023 0.226-0.079 0.325-0.158 0.325 0 0-0.448 0.114-0.358 0.315 0.01 0.026 0.021 0.049 0.029 0.069 0.062 0.146 0.062 0.192-0.076 0.29-0.157 0.113-0.314 0.18-0.359 0.404-0.045 0.226-0.09 0.293-0.359 0.382-0.271 0.09-0.226 0.293-0.359 0.293-0.135 0-0.336 0.112-0.428 0.112-0.089 0-0.201-0.112-0.381 0-0.18 0.111-0.292 0.201-0.449-0.045-0.157-0.247 0.045-0.405-0.112-0.608-0.158-0.201-0.158-0.382-0.18-0.449-4e-3 -0.011-0.013-0.026-0.027-0.047-0.069-0.101-0.242-0.301-0.242-0.47 0-0.202-0.112-0.674-0.112-0.674s-0.451-0.74-0.428-0.966c3e-3 -0.031 9e-3 -0.069 0.016-0.109 0.044-0.253 0.16-0.66 0.276-0.834 0.135-0.203 0.112-0.472 0.045-0.517s-0.112-0.315-0.045-0.315-0.045-0.023-0.112-0.203c-0.034-0.086-0.04-0.194-0.059-0.301-0.013-0.062-0.028-0.126-0.057-0.184-0.022-0.048-0.054-0.093-0.098-0.132-0.031-0.027-0.064-0.059-0.098-0.093-0.177-0.177-0.37-0.429-0.353-0.57 0.022-0.169 0.102-0.225 0.102-0.292 0-0.022 5e-3 -0.051 9e-3 -0.082 0.012-0.062 0.032-0.131 0.047-0.177 7e-3 -0.02 0.018-0.038 0.028-0.058 0.027-0.049 0.051-0.105-5e-3 -0.201-0.079-0.135-0.136-0.179-0.136-0.179l-0.075-0.11-2e-3 -3e-3s-0.159 0.066-0.226 0.066-0.146 0.046-0.226 0.046c-0.079 0-0.124 0.011-0.112-0.09 0.012-0.1 0.112-0.1-0.012-0.19-0.123-0.09-0.112-0.134-0.202-0.134-0.085 0-0.161-0.01-0.227-1e-3 -3e-3 0-5e-3 0-9e-3 1e-3 -0.044 7e-3 -0.119 0.02-0.163 0.027-0.022 3e-3 -0.039 6e-3 -0.039 6e-3s0 0.067-0.067 0.067-0.078 0.057-0.134 0.057c-0.057 0-0.123 0.044-0.158 0.067-0.033 0.022-0.124 0.045-0.124 0.045l-0.112 0.045s-0.011 5e-3 -0.029 9e-3c-0.026 7e-3 -0.066 0.01-0.105-9e-3 -0.068-0.035-0.012-0.068-0.112-0.068h-0.259c-0.124 0-0.169 0.056-0.202 0.056s-0.146 0.066-0.146 0.066l-0.096 0.018-0.027 4e-3s-0.033 0.045-0.123-0.033c-0.09-0.079-0.213-0.157-0.213-0.157s-0.203-0.168-0.247-0.213c-0.034-0.035-0.043-0.068-0.079-0.103-0.012-0.01-0.026-0.021-0.044-0.033-0.079-0.045-0.102-0.057-0.135-0.09s-0.113-0.089-0.113-0.124v-0.134s-5e-3 -0.019-0.014-0.043c-0.017-0.042-0.045-0.102-0.086-0.136-0.067-0.056-0.057-0.079-0.101-0.113-0.045-0.033-0.09-0.124-0.09-0.124s-8e-3 -3e-3 -0.02-8e-3c-0.034-0.017-0.096-0.06-0.071-0.126 0 0-0.101 0.035-0.146-0.034-0.022-0.033-0.034-0.049-0.04-0.058l-5e-3 -8e-3s-0.089-0.057-0.079-0.136c0.012-0.078-0.011 0.023 0.012-0.078s0.023-0.034 0.023-0.101v-0.135c0-0.057 0.022-0.124 0.022-0.124s0.079-0.157 0.101-0.191c0.016-0.023 0.021-0.03 0.022-0.073 1e-3 -0.02 1e-3 -0.045 1e-3 -0.084 0-0.124 0.023-0.157 0.023-0.258s-0.012-0.056-0.012-0.157c0-0.1 0.056-0.224 0-0.247-0.057-0.021-0.045-0.01-0.068-0.066-0.023-0.057-0.057-0.057-0.045-0.136 0.011-0.078 0-0.033 0.045-0.123s0.157-0.224 0.157-0.224 0.023-0.112 0.067-0.168c0.045-0.056 0.057-0.078 0.079-0.124 0.023-0.045 0.023-0.225 0.202-0.326 0.177-0.1 0.125-0.231 0.156-0.247 0.035-0.011 0.124-0.034 0.158-0.079 0.033-0.045 0.157-0.113 0.157-0.113s0.168 0.012 0.168-0.068c0-0.078 0.09-0.157 0.09-0.157l0.011-0.089s-0.022-0.08-0.022-0.146c0-0.067 0.045-0.089 0.057-0.147 0.011-0.056 0.067-0.111 0.112-0.19 0.045-0.078 0.101-0.067 0.169-0.101 0.067-0.033 0.123-0.033 0.146-0.078 0.022-0.045 0.112-0.045 0.112-0.102s0.044-0.112 0.056-0.157c0.011-0.044 0.023-0.101 0.023-0.101s-0.013-0.057 0.067-0.045c0.079 0.01 0.124 0.09 0.124 0.09s0.066 0.044 0.111 0.044h0.146s0.078-0.012 0.112 0 0.034 0.023 0.091 0.035c0.015 3e-3 0.027 4e-3 0.037 3e-3 0.025-1e-3 0.039-0.016 0.063-0.048 0.033-0.045-0.057 0 0.033-0.045 0.091-0.045 0.136-0.056 0.18-0.056 0.045 0 0.058-0.035 0.103-0.067 0.044-0.034 0.179-0.057 0.179-0.057s0.079-0.022 0.113-0.022c0.033 0 0.044 0.011 0.258-0.023 0.214-0.033 0.314-0.056 0.314-0.056h0.191s0.111-0.011 0.146-0.011c0.033 0 0.146-0.012 0.146-0.012l0.146-0.033s0.134 0.022 0.134 0.079c0 0.056 0.101-0.012 0.101-0.012s-0.101 0.112-0.078 0.146 0.078 0.124 0.045 0.18c-0.032 0.057-0.09 0.09-0.101 0.157-0.012 0.068 0.033 0.124 0.033 0.124s0.022 0.067 0.091 0.067c0.029 0 0.054 0.023 0.076 0.049 0.026 0.031 0.05 0.063 0.081 0.063 0.057 0 0.125 0.023 0.202 0.023 0.078 0 0.258 0.023 0.258 0.023s0.079 0.023 0.09 0.135c0.012 0.112 0.034 0.112 0.079 0.112s0.201-0.034 0.259 0.023c0.057 0.057 0.012 0.044 0.078 0.1 0.068 0.056 0.202 0.09 0.259 0.045 0.056-0.045 0.101 0.011 0.101-0.068 0-0.078-0.057-0.213 0-0.258 0.057-0.046 0.089-0.146 0.156-0.146 0.069 0 0.169-0.067 0.237 0.011s0.124 0.113 0.124 0.113 0.146 0.078 0.214 0.078c0.019 0 0.036 5e-3 0.052 0.012 0.036 0.016 0.062 0.044 0.096 0.044 0.044 0 0.213-0.012 0.269 0 0.057 0.011 0.247 0.19 0.359 0.146s0.122-0.146 0.27-0.146c0.146 0 0.125 0.068 0.214 0.068 0.09 0 0.068 0.022 0.158 0.022 0.089 0 0.111 0.01 0.146 0.01 0.023 0 0.074 0.174 0.099 0.322 0.01 0.064 0.016 0.124 0.014 0.161-0.012 0.124 0.09 0.28-0.057 0.158-0.146-0.123-0.122-0.111-0.157-0.169-0.033-0.056-0.102-0.19-0.124-0.225-0.023-0.034 0.033 0.067 0.033 0.124s0.179 0.203 0.179 0.292-0.032 0.067 0.068 0.19c0.101 0.124 0.18 0.259 0.214 0.438 0.015 0.082 0.04 0.135 0.06 0.173 0.022 0.044 0.037 0.066 0.02 0.085-0.033 0.033 0.045-0.033 0.09 0.091 0.044 0.123 0.168 0.382 0.168 0.416s-0.011 0.168 0.012 0.213c0.022 0.045 0 0 0.113 0.124 0.067 0.075 0.11 0.079 0.142 0.104 0.02 0.016 0.036 0.041 0.049 0.098 0.035 0.146-0.056 0.022 0.091 0.225 0.145 0.202 0.045 0.247 0.156 0.27 0.112 0.021 0.226 0.135 0.304 0.225 0.079 0.09 0.079 0.135 0.135 0.179 0.057 0.044 0.102 0.089 0.102 0.157s0 0.124 0 0.158c0 6e-3 2e-3 0.012 2e-3 0.02 8e-3 0.032 0.028 0.071 0.065 0.071 0.045 0 0.045 0.089 0.113 0.089 0.067 0 0.146-0.011 0.256-0.021 0.113-0.012 0.068-0.091 0.192-0.091 0.123 0 0.09-0.034 0.247-0.034s0.247 0.012 0.304-0.033c0.056-0.045 0.156-0.112 0.156-0.112s0.117-0.047 0.038 0.055zm-8.732 18.564-0.493-0.742c-0.152-0.231-0.053-0.42 0.226-0.42h0.022c0.277 0 0.614 0.195 0.755 0.436l0.035 0.061c0.138 0.24 0.359 0.238 0.497-2e-3l0.029-0.055c0.137-0.242 0.47-0.438 0.747-0.438 0.275 0 0.372 0.187 0.218 0.416l-0.492 0.73c-0.156 0.231-0.157 0.604-3e-3 0.835l0.537 0.804c0.155 0.231 0.055 0.418-0.224 0.418h-0.04c-0.277 0-0.615-0.194-0.751-0.436l-0.054-0.094c-0.138-0.24-0.362-0.242-0.502-1e-3l-0.055 0.095c-0.139 0.241-0.477 0.436-0.754 0.436h-0.014c-0.277 0-0.377-0.187-0.222-0.416l0.533-0.793c0.157-0.229 0.159-0.604 5e-3 -0.834zm-3.354 0-0.493-0.742c-0.153-0.231-0.053-0.42 0.225-0.42h0.023c0.278 0 0.615 0.195 0.754 0.436l0.034 0.061c0.139 0.24 0.362 0.238 0.498-2e-3l0.031-0.055c0.136-0.242 0.469-0.438 0.746-0.438s0.373 0.187 0.218 0.416l-0.493 0.73c-0.155 0.231-0.156 0.604-2e-3 0.835l0.538 0.804c0.154 0.231 0.054 0.418-0.224 0.418h-0.04c-0.278 0-0.615-0.194-0.752-0.436l-0.053-0.094c-0.138-0.24-0.363-0.242-0.501-1e-3l-0.056 0.095c-0.138 0.241-0.477 0.436-0.754 0.436h-0.013c-0.277 0-0.377-0.187-0.222-0.416l0.534-0.793c0.153-0.229 0.154-0.604 2e-3 -0.834zm0.656-28.618s0.169-0.092 0.194-0.092 0.161-0.05 0.042-0.05c-0.118 0-0.227 0.059-0.261 8e-3 -0.033-0.05 0.261-0.186 0.32-0.134 0.06 0.05 0.017 0.109 0.084 0.109s0.144-8e-3 0.202-0.042c0.06-0.034 0.102-0.034 0.194-0.034 0.093 0 0.084 0.034 0.194-8e-3 0.109-0.042 0.328 0.042 0.346 0.168 0 0-0.135 0.161-0.278 0.178-0.143 0.016-0.336 0.076-0.345 0.109-8e-3 0.033-0.092 0.033-0.168 0.033s-0.193-0.042-0.228-0.076c-0.034-0.033-0.202-0.025-0.202-0.025l0.11-0.092-0.204-0.052zm4.221 4.347s0.059-0.034 0.075-8e-3c0.018 0.025 0.06 0.076 0.06 0.076 0.018 0.025-0.033 0.286-0.033 0.286l-0.075 0.017-0.034 0.067h-0.084v-0.27l-0.043-0.092 0.067-0.042 0.067-0.034zm-0.06-0.262c0.017-0.059 0.151-0.017 0.151 0.06 0 0.075-0.017 0.143-0.103 0.143-0.081 1e-3 -0.048-0.203-0.048-0.203zm-2.561-2.037c-0.075 0-0.117 0.051-0.1-0.085 0.017-0.134 0.041-0.184 0.135-0.126 0.092 0.06 0.143 0.026 0.143 0.026s-0.049-0.152 0.085-0.152c0.135 0 0.161-0.025 0.21 8e-3 0.051 0.035 0.244 0.126 0.043 0.126-0.202 0-0.152 0.017-0.067 0.092 0.084 0.075 0.019 0.034 0.019 0.034-0.035 0.034 0.057 0.253-0.086 0.279-0.144 0.025-0.136 0.025-0.236 0.067-0.102 0.042-0.102 0.084-0.202 0.05-0.101-0.033-0.126-0.033-0.126-0.092s0.042-0.135 0.109-0.152c0.065-0.017 0.149-0.075 0.073-0.075zm4.163-4.197c0.101 0.102 0.21 0.102 0.269 0.102 0.06 0 0.026 0.051-0.109 0.051s-0.27-0.051-0.27-0.051c-0.059-0.025-0.024-0.143-0.168-0.126-0.145 0.017-0.103-0.017-0.202 0.126-0.102 0.143-0.042 0.193-0.16 0.143s-0.094 0.068-0.271-0.05c-0.178-0.118-0.169-0.101 0.093-0.152 0 0 0.102-0.093 9e-3 -0.093-0.094 0-0.143 0.093-0.244 0.093s-0.236 0-0.236-0.102c0-0.101 8e-3 -0.176 0.126-0.176s0.151 0 0.387 0c0.237 0 0.287-0.042 0.447-0.042h0.396 0.388s0.075 0.067-0.085 0.118c-0.159 0.051-0.187 0.059-0.303 0.059-0.117 0-0.304-0.016-0.345-0.033-0.042-0.017-0.135-0.017-0.135-0.017s0.311 0.049 0.413 0.15zm4.397 1.129s-0.27 0.051-0.295 0.051-0.126-0.051-0.202-0.109c-0.075-0.059-0.328 0.035-0.328-0.034 0-0.066 0.067-0.076 0.135-0.109 0.067-0.034 0.05-0.051 0.067-0.136 0.017-0.084 0.026-0.134 0.051-0.134s-0.033-0.051 0.059-0.06c0.093-8e-3 0.043-0.109 0.109-0.109 0.067 0 0.169-0.051 0.218-0.051 0.052 0 0.035-0.092 0.127-0.092 0.093 0 0.32-9e-3 0.371-9e-3s0.043-0.042 0.101-0.042c0.059 0 0.152-0.051 0.202-0.051 0.051 0 0.068-0.026 0.151 0.059 0 0-0.834 0.203-1.053 0.463-0.218 0.262 0.169 0.338 0.287 0.363zm2.924-1.381c9e-3 -0.043 0.034-0.135 0.177-0.135 0.144 0 0.068-0.084 0.237 0.017s0.101 0.093 0.244 0.101c0.143 9e-3 0.185-8e-3 0.26 0.051 0.077 0.059 0.127 0.202 0.06 0.194-0.025-3e-3 -0.177 0-0.455-0.067-0.277-0.068-0.261-0.084-0.354-0.093s-0.177-0.027-0.169-0.068zm1.121 0.109s0.126 0.06 0.548 0.068c0.421 8e-3 0.067 0.093 9e-3 0.093-0.06 0-0.193 0-0.296 0.016-0.102 0.018-0.185 0-0.185 0s-0.085-0.144-0.076-0.177zm5.157 0.464c0.16 0 0.362 0.025 0.387 0.025 0.026 0 0.194 0.042 0.077 0.126 0 0-0.363 0.058-0.472 0.058-0.11 0-0.287-0.017-0.413-0.093-0.128-0.076 0.059-0.22 0.176-0.126 0.119 0.093 0.135 0.076 0.169 0.067 0.034-7e-3 -0.085-0.057 0.076-0.057zm5.644 0.665c0.707 0.093 0.269 0.152-0.052 0.152-0.319 0 0.052-0.152 0.052-0.152zm-0.135 6.892c0.026 0.135-0.085 0.06-0.143 0.025-0.061-0.033-0.11-0.05-0.118 0-8e-3 0.051-0.051 0.135-0.102 0.067-0.051-0.067-0.075 0.042-0.092 0.102-0.018 0.058-0.043 0.05-0.118-0.035-0.076-0.083-8e-3 0.084-8e-3 0.186 0 0.101-0.043 0.135-0.126 0.21-0.086 0.076-0.11 0-0.11-0.135 0-0.134-0.033-0.168-0.126-0.194-0.093-0.025-0.118-0.109-0.059-0.21s0.209-0.32 0.396-0.337c0.185-0.017 0.193-0.033 0.312 0.017 0.117 0.05 0.084 0.042 0.075-0.135s0.126-0.143 0.203-0.152c0.075-8e-3 0.083-0.075 0.118-0.244 0.033-0.168-0.118-0.393-0.135-0.413-0.109-0.126 0.067-0.21 0.193-0.109 0.126 0.102 0.287 0.245 0.287 0.387 0 0.143-0.084 0.118-0.084 0.143s0.143 0.144 0.16 0.294c0.017 0.152 0.042 9e-3 0.051 0.194 9e-3 0.186 0 0.084-0.108 0.051-0.11-0.035-0.094 0.05-0.203 0.109-0.108 0.059-0.06 0.093-0.168 0.017-0.111-0.075-0.12 0.028-0.095 0.162zm-0.682 5.359c0.084 0.109-0.018 0.092-0.117 0.092-0.102 0-0.194-0.126-0.178-0.311 0.017-0.186-0.085-0.05-0.085-0.05h-0.201s-0.102 0.144-0.102 0.118c0-0.025 0.076-0.168 0.076-0.202 0-0.033 0.108-0.042 0.108-0.042s0.061-0.066 0.094-0.076c0.032-8e-3 0.024 0.06 0.051 0.093 0.024 0.033 0.079 0.01 0.067-0.017-0.017-0.033 0.033-0.143 0.137-0.101 0.101 0.042 0.058 0.017 0.058-0.092s0.084-0.06 0.135 0.067c0.05 0.126 0 0.084 0.06 0.278 0.059 0.194-0.068 0.119-0.144 0.051-0.076-0.069-0.044 0.082 0.041 0.192zm-0.876 1.372c0.098 0.04 0.079 0.076 0.059 0.093 0.069-0.034 0.43-0.109 0.43-0.109s-0.126 0.118-0.193 0.151c-0.067 0.034-0.051 0.093-0.051 0.126 0 0.034 0.059 0.236 0.092 0.311 0.034 0.076 0.117 0.11 0.117 0.11s-0.092 0.016-0.117 0.041l-0.109 0.109c-0.025 0.025-0.093-0.025-0.093-0.101s-0.042-0.076-0.059-0.134c-0.018-0.06-0.018-0.118 0-0.144 0.017-0.025 0.049-0.076 8e-3 -0.076-0.042 0-0.145-0.059-0.134 0.059 4e-3 0.067-9e-3 0.54-9e-3 0.54l-0.144-0.026v-0.169l0.01-0.236-0.126-0.025 8e-3 -0.16s0.041 0.076 0.067-0.109c0.025-0.186 0.118-0.379 0.118-0.379s0.041-0.278 0.235-0.262c0.194 0.017 0.186 0.035 0.371 0.035s0.262-0.068 0.304-0.118c0.043-0.051 0.084 0.034-0.018 0.143-0.101 0.109 0.051 0.126-0.177 0.126h-0.488c-0.085 0-0.169-0.033-0.143 0.051 0.025 0.087-0.127 0.087 0.042 0.153zm-0.481 0.01c-0.084 0.093-0.152 0.034-0.186 0.135s-0.034 0.203-0.034 0.253-0.076 0.261-0.076 0.261v-0.119s-0.118 0.085-0.202 0.085-0.051-0.085-0.051-0.085-0.051 0.034-0.11 0c-0.058-0.033-0.134-0.084-0.134-0.084s0 0.068-0.06 0.068c-0.058 0-0.22 0.068-0.193 0.025 0.024-0.042 0.033-0.159 0-0.134s-0.026 0.025-0.126 0.025c-0.102 0-0.145 0.035-0.145 0 0-0.033-0.016-0.328-0.016-0.328s-0.052 0.025-0.118-0.144c-0.067-0.168-0.051-0.235-0.043-0.319 6e-3 -0.05 0.031-0.101 0.051-0.133 0.015-0.021 0.025-0.037 0.025-0.037s0.058 0.06 0.151 0.068c0.094 9e-3 0.135 0.084 0.145 9e-3 8e-3 -0.077 0.017-0.153 0.024-0.186 9e-3 -0.033 0.118-0.076 0.187-0.076s0.033 0.042 0.134-0.068 0.093-0.152 0.093-0.186 0.102-0.109 0.169-0.101c0.067 9e-3 0.05 0 0.101-0.051 0.05-0.05 0.01-0.1 0.076-0.169 0.067-0.067 0.067-0.143 0.067-0.143s0.212-0.092 0.228 9e-3c0.017 0.1 0.101 0.151 0.101 0.151 0.109 0.017 0.194 0.059 0.194 0.059s9e-3 0.092-0.042 0.092h-0.135l0.075 0.076s-0.066 0.034-0.118 0.034c-0.034 0-0.089 8e-3 -0.12 0.013-0.014 2e-3 -0.022 4e-3 -0.022 4e-3s0.025 0.059 0.076 0.168-0.035 0.152 0.051 0.161c0.084 8e-3 0.084 0.177 0.084 0.177s-0.05 0.075 0.05 0.092c0.102 0.017 0.085 0.068 0.085 0.068s-0.228-0.026-0.245 0.084c-0.016 0.11 0.093 0.152 9e-3 0.246zm-0.892 1.348 0.261 0.026s0.169 0.058 0.237 0.109c0.067 0.051-0.068 0.059-0.11 0.051-0.041-8e-3 -0.126 8e-3 -0.219-8e-3 -0.092-0.017-0.177 0-0.336-0.068-0.161-0.067-0.253-0.017-0.363-0.084-0.109-0.068-0.176-0.051-0.278-0.077-0.1-0.025-0.151-0.025-0.285-0.109-0.136-0.084-0.085-0.21 0.144-0.194 0.228 0.018 0.142 0.084 0.286 0.177s0.328-0.034 0.328-0.034 0.109 0 0.211 0.026c0.1 0.025 0.076-0.017 0.227-0.017s0.134 0.084 0.134 0.084-0.151 0.034-0.201 0.034c-0.053-2e-3 -0.036 0.084-0.036 0.084zm-0.709-5.073c-0.134 0.092-0.228 0.051-0.252-0.126s0.279-0.202 0.279-0.202l0.134 0.084s-0.026 0.151-0.161 0.244zm2.097 0.69c0.051 0.068 0.025 0.06 0.06 0.135 0.032 0.076 0.059 0 0.059-0.025s0.101-0.034 0.126-8e-3c0.024 0.025 0.085 0.093 0.102 0.118s0.117 0.161 0.117 0.161l-0.058 0.067s-0.034-0.025-0.043-0.084c-8e-3 -0.06-0.051-0.042-0.118-0.076-0.066-0.035-0.084-0.017-0.084-0.017s-0.076-0.06-0.101-0.068-0.06 8e-3 -0.06 8e-3h-0.109s0.017-0.076 0.017-0.135c0-0.058-0.033-0.068-0.067-0.068-0.035 0-0.077 0-0.102-0.042-0.024-0.042-0.118-0.237-0.118-0.237h0.143s9e-3 -0.067-0.033-0.084c-0.041-0.016-0.024-0.27-0.024-0.27s9e-3 -0.051 9e-3 -0.143 0.051 0.042 0.108 0.05c0.059 8e-3 0.101-0.034 0.135-0.034s0.034 0.126 0.034 0.177c0 0.052 0.051 0.084 0.076 0.144 0.024 0.06 0.06 0.093-0.025 0.143-0.084 0.05-0.033 0.059-0.084 0.059-0.05 0-0.024 0.067-0.033 0.118-0.01 0.053 0.024 0.045 0.073 0.111zm-0.277-1.641c0 0.034-0.126 0.244-0.126 0.244s-0.177-0.051-0.169-0.227c8e-3 -0.177 0.219-0.556 0.286-0.311 0.012 0.038 9e-3 0.26 9e-3 0.294zm1.601-4.551s0.126 0.068-9e-3 0.068h-0.134s0.068 0.227 0.017 0.152c-0.05-0.076-0.092-0.093-0.151-0.169s0-0.186-0.118-0.287c-0.116-0.101-0.142-0.125-0.201-0.235-0.059-0.109-0.059-0.077-0.135-0.211-0.076-0.135-0.01-0.126-0.109-0.177-0.102-0.05-0.135-0.109-0.22-0.253-0.083-0.143-0.024-0.151-0.024-0.151s0.024-0.118 0.1 0c0.075 0.119 0.118 0.076 0.186 0.21 0.068 0.135 0.068 0.06 0.177 0.21 0.11 0.152 0.177 0.135 0.237 0.194 0.058 0.058 0.27 0.253 0.276 0.287 9e-3 0.034-0.033 0.025-0.033 0.025-0.024-0.017-0.161-0.161-0.21-0.118-0.053 0.042 0.108 0.33 0.351 0.455zm0.169 0.977s-0.21 0.05-0.202-0.101c9e-3 -0.152 0-0.194 0.06-0.194 0.059 0 0.193 0.118 0.059-0.067-0.134-0.186-0.094-0.143-0.152-0.236-0.06-0.092 8e-3 -0.119 8e-3 -0.119s0.279 0.236 0.456 0.253 0.234 0.017 0.27 0.084c0.033 0.068 0.159 0.126 0.06 0.126-0.102 0-0.16-0.059-0.16 0.058 0 0.119 8e-3 0.22-0.11 0.152-0.118-0.067-0.093-0.126-0.219-0.075s-0.185-0.068-0.177-0.025c5e-3 0.044 0.107 0.144 0.107 0.144zm-5.456 24.398-0.493-0.742c-0.152-0.231-0.053-0.42 0.226-0.42h0.022c0.276 0 0.614 0.195 0.755 0.436l0.034 0.061c0.139 0.24 0.36 0.238 0.498-2e-3l0.029-0.055c0.137-0.242 0.47-0.438 0.746-0.438s0.373 0.187 0.218 0.416l-0.492 0.73c-0.155 0.231-0.156 0.604-2e-3 0.835l0.537 0.804c0.155 0.231 0.054 0.418-0.224 0.418h-0.041c-0.276 0-0.614-0.194-0.75-0.436l-0.055-0.094c-0.137-0.24-0.361-0.242-0.501-1e-3l-0.055 0.095c-0.139 0.241-0.477 0.436-0.754 0.436h-0.014c-0.277 0-0.377-0.187-0.222-0.416l0.533-0.793c0.156-0.229 0.158-0.604 5e-3 -0.834zm8.555-14.346c-0.127-0.059-0.235-0.277-0.235-0.277s0.043-0.026-0.051-0.084c-0.094-0.06-0.035-0.084-0.177-0.093-0.144-8e-3 -0.144-0.033-0.194 0.018-0.053 0.05-0.035 0.084-0.144 0.084-0.11 0-0.153 0.017-0.153 0.017l0.202 0.06s0.051 0.101-0.043 0.101h-0.167c-0.029 0-0.143-8e-3 -0.207-0.013-0.026-2e-3 -0.046-4e-3 -0.046-4e-3s-0.117-0.21-0.228-0.168c-0.109 0.042-0.286 0.068-0.286 0.068s0.024-0.253 0.16-0.219c0 0 0.051-0.245-0.059-0.338-0.11-0.092-0.255-0.193-0.371-0.193-0.118 0-0.203-0.076-0.203-0.101s-0.083-0.034-0.117-0.059c-0.033-0.025-0.059-0.101-0.059-0.101s-0.025 0.159-0.076 0.159-0.083-0.066-0.083-0.109-9e-3 -0.135-0.068-0.135c-0.061 0 0.042-0.034 0.076-0.051 0.032-0.017 0.177-8e-3 0.177-8e-3v-0.075l-0.271-9e-3 -0.043-0.11s-0.159 0.026-0.193-0.075l0.06-0.076s0.151-0.093 0.209-0.093c0.06 0 0.127 0.042 0.169 0.042 0.043 0 0.128 0.042 0.128 0.109s9e-3 0.167 9e-3 0.202 0.032 0.068 0.032 0.093 0.076-0.058 0.076 0.025c0 0.084 0.025 0.118 0.06 0.118 0.033 0 0.16-0.067 0.178-0.143 0.017-0.075 0.032-0.118 0.117-0.118 0.084 0 0.108-0.177 0.235-0.092 0.128 0.084 0.16 0.135 0.254 0.142 0.092 8e-3 0.134-0.017 0.193 0.025 9e-3 8e-3 0.024 0.017 0.041 0.027 0.087 0.055 0.256 0.144 0.32 0.152 0.076 8e-3 0.177 0.033 0.277 0.092 0.102 0.058 0.152 0.092 0.152 0.194 0 0.101 0 0.118 0.06 0.118 0.059 0 0.136 0.05 0.136 0.076 0 0.025 0.186 0.025 0.186 0.109s-0.169 0.05-0.145 0.118c0.025 0.066 0.177 0.185 0.22 0.26 0.043 0.076-0.043 0.068 0.059 0.144 0.101 0.076 0.186 0.144 0.21 0.168 0.026 0.025 0.237 0.186 0.034 0.144-0.199-0.045-0.284-0.062-0.411-0.121zm-35.286 14.346-0.493-0.742c-0.153-0.231-0.053-0.42 0.225-0.42h0.023c0.278 0 0.616 0.195 0.754 0.436l0.035 0.061c0.138 0.24 0.361 0.238 0.498-2e-3l0.03-0.055c0.137-0.242 0.47-0.438 0.746-0.438s0.373 0.187 0.218 0.416l-0.493 0.73c-0.155 0.231-0.156 0.604-2e-3 0.835l0.538 0.804c0.154 0.231 0.054 0.418-0.225 0.418h-0.04c-0.277 0-0.615-0.194-0.752-0.436l-0.053-0.094c-0.137-0.24-0.362-0.242-0.501-1e-3l-0.055 0.095c-0.139 0.241-0.477 0.436-0.754 0.436h-0.014c-0.276 0-0.376-0.187-0.222-0.416l0.534-0.793c0.155-0.229 0.156-0.604 3e-3 -0.834zm1.551-7.004 8e-3 3e-3 4e-3 4e-3 -3e-3 0.01s-8e-3 2e-3 -9e-3 2e-3c-2e-3 0-0.016 2e-3 -0.016 2e-3l-9e-3 -2e-3 -7e-3 -0.011s0-6e-3 2e-3 -6e-3c1e-3 0 4e-3 -2e-3 5e-3 -3e-3 1e-3 -2e-3 3e-3 -0.014 3e-3 -0.014l0.013 2e-3 6e-3 3e-3v9e-3l3e-3 1e-3zm0.084-0.039-0.016-0.012-0.017-0.012-6e-3 -0.017s-4e-3 -0.017-2e-3 -0.017 0.02 2e-3 0.02 2e-3l2e-3 -3e-3c3e-3 0-5e-3 0.016 0.021 0.022 0.025 8e-3 0.021 0 0.023-5e-3 2e-3 -6e-3 0.01-0.01 9e-3 -0.016s5e-3 -0.012 7e-3 -0.012c3e-3 0 0.014-2e-3 0.019 0 4e-3 0 0.013 8e-3 0.014 0.011 0 1e-3 2e-3 0.01 7e-3 0.012s0.019 3e-3 0.019 3e-3 9e-3 -0.01 8e-3 -0.013c-2e-3 -5e-3 3e-3 -7e-3 5e-3 -7e-3 3e-3 0 6e-3 -6e-3 8e-3 -8e-3 2e-3 -3e-3 0.021-3e-3 0.021-3e-3s-8e-3 0.015 1e-3 0.017c8e-3 2e-3 7e-3 7e-3 5e-3 0.011-1e-3 3e-3 -8e-3 0.014-8e-3 0.014s-5e-3 0.015-7e-3 0.017-8e-3 0.013-0.016 0.017c-9e-3 2e-3 -0.02 4e-3 -0.02 0.01s0 0.022-1e-3 0.026-8e-3 0.019-0.011 0.021c-4e-3 2e-3 -0.03 4e-3 -0.035 6e-3 -5e-3 0-0.035-2e-3 -0.035-2e-3l-0.012 8e-3s-4e-3 0.01 0 0.01c4e-3 1e-3 0.013 5e-3 0.018 6e-3 5e-3 2e-3 0.01 9e-3 5e-3 0.014-4e-3 4e-3 -0.015 8e-3 -0.015 0.01s1e-3 7e-3 -1e-3 9e-3c-3e-3 2e-3 -0.014 1e-3 -0.016 2e-3s-9e-3 -0.011-9e-3 -0.011l-0.016-2e-3s-4e-3 4e-3 -9e-3 4e-3c-4e-3 2e-3 -0.019 2e-3 -0.019 2e-3l-3e-3 -6e-3 -0.015-4e-3v-0.014s0.023-7e-3 0.025-7e-3 0.01-0.013 0.01-0.013l9e-3 -4e-3 4e-3 -0.021s2e-3 -0.018 5e-3 -0.018c4e-3 0 0.041-7e-3 0.043-7e-3s7e-3 -0.014 7e-3 -0.014l-0.026-6e-3zm4e-3 -0.086h0.016v8e-3l-2e-3 7e-3 -7e-3 5e-3 -4e-3 -9e-3 -3e-3 -0.011zm0.064-0.013v-0.011h0.012l5e-3 8e-3h0.011l7e-3 9e-3s-7e-3 6e-3 -9e-3 7e-3c-3e-3 0-0.019-3e-3 -0.02-3e-3 -3e-3 0-6e-3 -0.01-6e-3 -0.01zm0.127 0.104-1e-3 -0.021-0.014-7e-3 -2e-3 -0.036h0.019v-0.028h0.049l1e-3 0.028 0.014 5e-3v0.014l0.015-2e-3s0.01-7e-3 0.01-0.01c0-2e-3 2e-3 -0.017 2e-3 -0.017l7e-3 -9e-3 0.022 6e-3h0.02l2e-3 0.013v0.02l-0.025 3e-3 2e-3 0.012h0.02l3e-3 0.016-0.011 0.019s-0.012 5e-3 -0.02 5e-3c-6e-3 0-9e-3 8e-3 -0.013 8e-3 -4e-3 2e-3 -0.014 0.013-0.021 0.015s-0.021 4e-3 -0.025 4e-3 -0.032-0.012-0.032-0.012l2e-3 0.02s-6e-3 0.013-8e-3 0.013-0.026 2e-3 -0.026 2e-3v0.016l3e-3 0.014-8e-3 8e-3 -0.014-0.011-0.019 6e-3 5e-3 0.011 0.011 6e-3v0.024s-0.01 3e-3 -0.014 2e-3c-4e-3 -2e-3 -0.013-0.019-0.014-0.021-1e-3 -3e-3 -0.012-0.023-0.014-0.024-2e-3 -2e-3 -0.015-6e-3 -0.018-6e-3s5e-3 -0.014 5e-3 -0.014l0.013-8e-3s6e-3 -0.012 9e-3 -0.013 9e-3 -9e-3 9e-3 -9e-3l6e-3 -0.014 8e-3 -0.016h0.021l9e-3 0.01h0.012v-0.022zm0.261-3.913c0.067 0.127 0.051 0.152-0.068 0.243-0.118 0.094-0.101 0.144-0.169 0.304-0.067 0.16-0.142 0.244-0.101 0.144 0.042-0.101-0.025-0.144-0.025-0.144s-0.076 0.144-0.093 0.26c-0.016 0.116-0.065 0.367-0.122 0.458-1e-3 2e-3 -3e-3 4e-3 -4e-3 6e-3 -0.06 0.085-0.143 0.077-0.295 0.127-0.152 0.051-0.169-0.059-0.338-0.085-0.111-0.017-0.178-0.039-0.208-0.035-0.016 2e-3 -0.022 0.012-0.019 0.035 8e-3 0.067 0.126 0.067 0.261 0.126 0.134 0.061-0.076 0.076-8e-3 0.178 0.068 0.101 0.118 0.075 0.118 0.178 0 0.1-0.017 0.168-0.134 0.303-0.118 0.135-0.532 0.075-0.616 0.075-0.083 0 0.052 0.143 0.109 0.236 0.06 0.094 0.017 0.101-0.041 0.177-0.06 0.075-0.135-0.025-0.337-0.033-0.202-9e-3 0.017 0.143 0.025 0.21s0.161 0.06 0.253 0.109c0.093 0.052 0 0.068-0.109 0.161-0.109 0.092 0 0.108 0 0.151s-0.025 0.143-0.143 0.159c-0.118 0.018-0.144 0.126-0.101 0.245 0.042 0.118 0.126 0.143 0.219 0.143s0.16-8e-3 0.16 0.186-0.017 0.109-0.084 0.127-0.051 0.06-0.067 0.201c-0.017 0.144-8e-3 0.101-0.118 0.119-0.109 0.017-0.017 0.101 0.126 0.235 0.144 0.135 0.026 0.041 0.245 0.328s0.649 0.253 0.69 0.261l-0.161 0.06s-0.092 0-0.135-9e-3c-0.042-8e-3 -0.109 0-0.134 0s-0.1 0.026-0.1 0.026-6e-3 0-0.018-2e-3c-0.051-2e-3 -0.202-8e-3 -0.244-8e-3 -0.05 0-0.167-0.033-0.235-0.067s-0.194-0.034-0.228-0.034c-0.033 0-0.193-0.152-0.193-0.152s-0.077-0.033-0.102-0.051-0.033-0.068-0.033-0.068-0.084-0.051-0.118-0.108c-0.033-0.061-0.076-0.043-0.076-0.043s-0.068-0.05-0.135-0.202c-0.024-0.055-0.036-0.075-0.043-0.081v-3e-3c0-0.042-0.118-0.169-0.16-0.209-0.042-0.043-0.134-0.22-0.134-0.22s0.06-0.144 0.101-0.144 0.101-0.125 0.101-0.151-0.076-0.011-0.126-0.017c-0.051-9e-3 -0.194-0.018-0.194-0.018s0.035-0.126 0.035-0.186 0.084-0.017 0.084-0.017l0.06-0.093s8e-3 -0.116-9e-3 -0.219c-0.016-0.101-0.033-0.201-0.033-0.235s-0.035-0.16-0.077-0.186c-0.042-0.025-0.042 0.067-0.034 0.16 8e-3 0.092 0.042 0.194 8e-3 0.229-0.035 0.032-0.066-0.018-0.092-0.145-0.025-0.127 0.042-0.201-0.017-0.201s-0.017-0.137-0.092-0.236c-0.077-0.102 0.033-0.193 0.042-0.296 8e-3 -0.101-0.135-0.177-0.21-0.312-0.077-0.135 0.042-0.118 0.042-0.118s0.017-0.362 0.017-0.438c0-0.075-0.017-0.303-0.017-0.455 0-0.15-0.017-0.143-0.035-0.218-0.016-0.076-0.117-0.252-0.05-0.202 0.068 0.05-0.017-0.338-0.017-0.338s-0.051-0.742-0.051-0.986c0-0.243-0.068-1.001-0.084-0.968-0.014 0.027-0.038-0.026-0.072-0.058-0.01-8e-3 -0.019-0.014-0.03-0.019-0.051-0.017-0.125-0.144-0.185-0.236s-0.235-0.076-0.328-0.126-0.193-0.126-0.354-0.244c-0.16-0.118-0.185-0.262-0.185-0.262s-0.033-0.092-0.084-0.186c-0.051-0.093-0.21-0.244-0.235-0.42-0.025-0.177-0.109-0.337-0.194-0.505-0.084-0.169-0.159-0.228-0.303-0.27-0.142-0.042-0.042-0.16-0.042-0.21 0-0.223 0.036-0.299 0.071-0.333 0-0.022 0.056-0.024 0.063-0.047 0.017-0.051 0.109-0.176-8e-3 -0.144-0.117 0.035-0.109-0.109-0.117-0.235-9e-3 -0.126 0.025-0.143 0.051-0.169 0.025-0.025 0.092-0.051 0.059-0.186-0.034-0.135 0.067-0.118 0.109-0.118 0.037 0 0.075-0.066 0.112-0.099 5e-3 -4e-3 9e-3 -7e-3 0.014-0.01 0.041-0.025 0 0-9e-3 -0.093-8e-3 -0.093 0.035-0.083 0.144-0.118s0.109-0.202 0.109-0.237c0-0.034 0.017-0.531 0-0.589s-0.101-0.101-0.101-0.142c0-0.042 0-0.126-0.033-0.203-0.034-0.076-0.152-0.035-0.194-0.017-0.042 0.017-0.051 0.05-0.127 0.109-0.017 0.014-0.026 0.021-0.031 0.026 1e-3 4e-3 3e-3 8e-3 5e-3 0.01 0.012 7e-3 0.042 0.021 0.059 0.083 0.034 0.118-0.152 0.058-0.152-0.018s-0.134-0.134-0.227-0.134c-0.092 0-0.126-9e-3 -0.177-0.084-0.051-0.076-0.034-0.084-0.219-0.135-0.137-0.038-0.149-0.215-0.161-0.314 0.018-0.019 0.126 0.013 0.197 0.013 0.075 0 0.078 0.028 0.118 0.028 0.032 0 0.1 0.062 0.123 0.084 0 0.073 0.01 0.061 0.161 0.188 0.11 0.093 0.148 0.093 0.187 0.083 0.021-6e-3 0.042-0.014 0.074-0.014 0.093 0 0.101-0.119 0.235-0.127s0.109 0.025 0.262 0.119c0.152 0.093-0.034 0.336-0.034 0.336s0.134-0.083 0.134-0.219c0-0.134 0.236-0.151 0.236-0.151s0-0.135 0-0.229c0-0.092 0.143-0.101 0.194-0.151 0.05-0.051 0.077 0.1 0.077 0.1s0.042-0.025 0.051-0.068c8e-3 -0.042 0.034-0.076 0.118-0.076s0.118-0.051 0.168-0.101c0.051-0.05 0.051-0.05 0.169-0.076 0.118-0.025 0.043 0.06 0.043 0.06s-0.06 0.033-0.111 0.058c-0.025 0.012-0.038 0.023-0.038 0.04 0 0.016 0.013 0.039 0.038 0.078 0.051 0.076-0.076 0.152-0.084 0.261s0.084 0.136 0.168 0.136 0.026-0.109-0.051-0.21c-0.075-0.101 0.144-0.227 0.203-0.227h0.261s0.084 0.084 0.084 0.084-9e-3 0.101 0.101 0.101 0.118-0.06 0.236-0.06 0.169 0.119 0.235 0.101c0.067-0.017 0.152-0.126 0.152-0.126l0.371 0.051s0.034 0.025-0.109 0.025c-0.144 0 0.034 0.068 0.143 0.126 0.109 0.059 0.117 0.017 0.168 0.068 0.052 0.05-0.101 0.143-0.101 0.143s0.118 0.062 0.241 0.06h0.012c0.127-9e-3 0.177 0.311 0.245 0.303 0.055-7e-3 0.165 0.109 0.205 0.153 8e-3 9e-3 0.014 0.014 0.014 0.014s0.084 0 0.202 0c0.104 0 0.202 0.046 0.275 0.058 9e-3 2e-3 0.019 3e-3 0.028 3e-3 0.076 0 0.363 0.219 0.363 0.219l0.024 0.017 0.06 0.042s0.059 0.152 0.084 0.245c0.025 0.092-0.025 0.119 0.092 0.202 0.119 0.084 0.084 0.017 0.093 0.101 8e-3 0.084-8e-3 0.101-0.109 0.144-0.101 0.042-0.017 0.125-0.017 0.125s0.134 0.017 0.194 0.017c0.059 0 0.126-8e-3 0.151 0.084 0.013 0.046-0.014 0.097-0.045 0.136 0.019-0.021 0.039-0.042 0.053-0.06 0.043-0.051 0.118-0.084 0.194-0.059s0.16 0.077 0.303 0.143c0.144 0.067 0.152 0.067 0.152 0.152 0 0.054-0.01 0.134-0.018 0.186 0.014-0.015 0.034-0.034 0.059-0.061 0.169-0.159 0.278-0.041 0.338-8e-3 0.059 0.035 0.134 0 0.219 0 0.084 0 0.117 0 0.193 8e-3 0.076 0.01 0.211 0.161 0.253 0.194 0.042 0.035 0.109 0.118 0.27 0.227s0.134 0.034 0.262 0.034c0.126 0 0 0.093 0.042 0.211 0.043 0.118 0.059 0.218 0.059 0.421 0 0.202-0.093 0.303-0.194 0.387s-0.16 0.119-0.194 0.177c-0.035 0.059-9e-3 0.093-0.076 0.22-0.068 0.126-0.033 0.193-0.059 0.152-0.025-0.043-0.109-0.152-0.109 0.034s-9e-3 0.69-0.017 0.816c-9e-3 0.126-0.077 0.109-0.077 0.203 0 0.092-8e-3 0.159-8e-3 0.227s-0.093 0.21-0.093 0.21l-0.042 0.228s-9e-3 0.058-0.118 0.058-0.033 0.102-0.042 0.127-0.253 0.018-0.362 0c-0.109-0.017-0.337 0.177-0.404 0.235-0.068 0.059-0.219 0.237-0.312 0.328-0.093 0.1 0.033 0.219 0.1 0.345zm-9.705-9.705c0-0.186-0.245-0.328-0.312-0.472-0.067-0.143-0.135-0.075-0.161-0.186-0.025-0.109 0.035-0.084-0.016-0.126s-0.144-0.143-0.144-0.218c0-0.077-0.093-0.052-0.143-0.109-0.051-0.059-0.025-0.211-0.033-0.345-8e-3 -0.135 0.033-0.227-0.092-0.295-0.126-0.067-0.093 0.068-0.169 0.185-0.076 0.119 8e-3 0.144 0.051 0.194 0.042 0.051 0.06 0.144 0.076 0.278 0.017 0.136 0.126 0.161 0.143 0.32 0.017 0.16-0.017 0.346 0.076 0.404 0.093 0.059 0.144 0.135 0.093 0.279-0.05 0.143-0.143-0.143-0.143-0.143l-0.236-0.22s0.016-0.126 0.016-0.177 0-0.051-0.025-0.152-0.118-0.051-0.219-0.143c-0.101-0.093-0.127-0.126-0.042-0.126s0.092-0.033 0.118-0.117c0.025-0.085-0.042-0.085-0.118-0.177s-0.084-0.194-0.084-0.194-6e-3 -0.276-0.021-0.409c-2e-3 -0.014-3e-3 -0.026-5e-3 -0.038-0.017-0.109-0.025-0.202-0.194-0.27-0.168-0.068-0.219-0.134-0.219-0.211 0-0.076 0.067-0.152 0.042-0.362s-0.084-0.193-0.126-0.388c-0.042-0.193 0.126-0.371 0.152-0.405 0.025-0.034 0.119-0.161 0.126-0.228 8e-3 -0.067 0.135-0.209 0.278-0.336 0.143-0.126 0.076-0.237 0.235-0.388 0.16-0.151 0.117-0.169 0.126-0.227 7e-3 -0.044 0.033-0.138 0.044-0.18 4e-3 -0.013 6e-3 -0.022 6e-3 -0.022l-0.011-0.04-0.022-0.087s0-0.084-0.151-0.244c-0.152-0.16 0.151-0.092 0.151-0.092s1e-3 -2e-3 2e-3 -3e-3 2e-3 -3e-3 3e-3 -6e-3c1e-3 -1e-3 2e-3 -3e-3 2e-3 -4e-3 3e-3 -6e-3 8e-3 -0.014 0.012-0.025 4e-3 -8e-3 9e-3 -0.017 0.013-0.026 0.018-0.036 0.035-0.076 0.035-0.088 0-0.025 9e-3 -0.152 9e-3 -0.152s0.029-0.208 0.041-0.37c5e-3 -0.068 6e-3 -0.128 1e-3 -0.162-2e-3 -0.013-5e-3 -0.024-8e-3 -0.03l-0.026 0.044-0.04 0.054-0.055 0.014-0.039-0.014c-8e-3 4e-3 -0.017 6e-3 -0.026 8e-3 -0.082 0.018-0.103 0.01-0.114-0.013-3e-3 0-5e-3 -1e-3 -6e-3 -1e-3 -8e-3 -2e-3 -0.025-0.048-0.025-0.048s0-0.09 0-0.095c0-7e-3 0.043-0.056 0.043-0.056l0.028-0.032c9e-3 -0.016 0.017-0.031 0.024-0.042 1e-3 -1e-3 2e-3 -4e-3 3e-3 -6e-3 4e-3 -8e-3 9e-3 -0.018 0.013-0.028 4e-3 -0.012 7e-3 -0.026 0.01-0.042l-0.027 0.018-8e-3 -0.029s-8e-3 -0.029 0.034-0.04l6e-3 -3e-3c0-4e-3 1e-3 -8e-3 1e-3 -0.011-1e-3 -0.053-0.011-0.108-0.032-0.153-0.042-0.092-0.067-0.125-0.134-0.261-0.067-0.134-0.144-8e-3 -0.286-0.093-0.144-0.084-0.126-8e-3 -0.253-8e-3 -0.125 0-0.084-0.033-0.152-0.118-0.068-0.084-0.21 0-0.21 0s0 0.067-0.042 0.126c-0.043 0.059-0.051 0.025-0.354 0.068-0.303 0.042-0.194 0.076-0.387 0.101-0.194 0.025 0.312-0.235 0.312-0.235s-0.262 0.109-0.456 0.185c-0.193 0.076-8e-3 0.034-0.186 0.126-0.177 0.093-0.606 0.228-0.606 0.228-0.783 0.371-1.407 0.472-1.819 0.548s8e-3 -0.076 8e-3 -0.076c1.432-0.303 1.744-0.708 1.744-0.708s-0.059 0.042-0.101 0.042-0.084-0.025-0.143-0.05c-0.06-0.025-0.06 0.017-0.169 0.034s-0.125-0.034-0.067-0.102c0.059-0.066 0.059-0.092 0.033-0.076-0.025 0.017-0.152 0.026-0.152-0.076 0-0.101 0.261-0.134 0.261-0.134s-0.168 0-0.177-0.034c-9e-3 -0.035 0.109-0.161 0.185-0.186s0.236-0.051 0.278-0.084 0.101-0.109 0.194-0.109c0.092 0 0.16 0.042 0.185 8e-3s0.161-0.085 0.253-0.085 0.126-8e-3 0.193-0.075c0.068-0.068 0.228-0.109 0.228-0.109s-0.253 8e-3 -0.48 8e-3 -0.101 0.017-0.278 0.017c-0.178 0 0.093-0.118 0.093-0.118s-0.093-0.018-0.043-0.043c0.051-0.025 0.152-0.1 0.337-0.118 0.186-0.017 0.202-0.051 0.253-0.058 0.051-9e-3 0.084 0.025 0.186 0.043 0.101 0.016 0.21-0.01 0.277-0.017 0.068-9e-3 -0.016-0.051-0.084-0.051s-0.051 0.025-0.059-0.084c-9e-3 -0.109-0.077-0.136-0.102-0.16-0.026-0.025 0.236-0.135 0.337-0.152s0.244-0.042 0.345-0.076 0.245-8e-3 0.362-0.067c0.118-0.059 0.194-0.059 0.32-0.068 0.126-8e-3 0.202-0.092 0.329-0.109 0.126-0.017 0.219 0 0.345 0s0.229 0.018 0.346 0.076c0.117 0.06 0 0 0.143 0s0.168 0.093 0.362 0.102c0.194 8e-3 0.144-9e-3 0.396-9e-3 0.084 0 0.13 8e-3 0.158 0.016 0.054 0.017 0.03 0.039 0.07 0.027 0.012-3e-3 0.027-3e-3 0.045-1e-3 0.067 9e-3 0.162 0.056 0.174 0.103 0.018 0.059 0.152 0.033 0.21 0.033 0.06 0 0.185-0.017 0.27-0.017s0.186 0 0.27-0.017 0.126-0.102 0.202-0.119c0.076-0.016 0.194 0.076 0.261 0.068 0.068-9e-3 0.151-0.034 0.236-0.11 0.084-0.076 0.169-0.017 0.16 0.017-8e-3 0.035-0.093 0.076-0.025 0.101 0.066 0.026 0.101-0.017 0.143-0.076 0.042-0.058 0.152-0.025 0.152-0.025s-0.118 0.119-0.017 0.119 0.084-0.068 0.134-0.084c0.051-0.017 0.101 0 0.186 0.034 0.084 0.034 0.144 0.034 0.202 0.092 0.06 0.059 0.118 0 0.371 0s0.177 0.144 8e-3 0.168c-0.168 0.025-0.109 0.068-0.109 0.068s0.413-0.06 0.548-0.06c0.134 0 0.101 8e-3 0.144 0.076s0.017 0.101 0.06 0.126c0.042 0.025 0.059-0.05 0.076-0.109s0.093-0.092 0.16-0.135c0.068-0.042 0.16-0.025 0.321-0.025 0.16 0 0.202 0.135 0.202 0.135s0.144-0.025 0.245-0.042 0.126-0.017 0.169-0.017h0.245s0.109 0.026 0.109 0.127 0.06 0.017 0.093 0.017 0.025-0.076 0.076-0.109c0.05-0.035 0.118-0.085 0.177-0.127s0.177-0.042 0.262-0.093c0.084-0.05 0.219-0.05 0.27-0.109 0.05-0.058 0.033 0.135 0.042 0.168 8e-3 0.034 0.068-8e-3 0.151-0.084 0.084-0.076 0.16-0.017 0.236 0.084s-0.042 0.101-0.152 0.109c-0.109 9e-3 -0.043 0.084 8e-3 0.103 0.051 0.017 0 0 0.068-0.033 0.067-0.035 0.117-0.017 0.194-0.084 0.076-0.068 0.126-0.034 0.177-0.068s0.06-0.136 0.16-0.186c0.101-0.051 0.144 0 0.185 0 0.043 0 0.177 0.068 0.194 0.126 0.017 0.06-0.05 0.017-0.21 0.093-0.16 0.075 0.034 0.059 0.051 0.143s-0.076 0.058-0.278 0.109-0.051 0.076-0.193 0.051c-0.144-0.025-0.051 0.035-0.144 0-0.093-0.033-0.109 0-0.202 0-0.092 0-0.084 0.017-0.117 0.092-0.035 0.077-0.025 0.052-0.077 0.06-0.051 9e-3 -0.118 0-0.186-8e-3 -0.067-9e-3 -0.177-9e-3 -0.177-9e-3s0.035 0.025 0.109 0.076c0.076 0.051 0.227 8e-3 0.227 0.051s-0.042 0.051-0.278 0.135c-0.237 0.084-0.043 0.034-0.169 0.034s-0.093 0.017-0.186 0.025c-0.093 9e-3 -0.379 0.051-0.21 0.06s-0.026 0.143-0.101 0.143c-0.472 0-0.985 0.674-0.985 0.674s0.194-0.017 0.194 0.084c0 0.1-0.134 0.244-0.134 0.244s0.144-0.025 0.312-0.025 0.253 0.21 0.387 0.21c0.135 0 0.177 0.118 0.177 0.118s0.371 0.026 0.413 0.026 0.025 0.058-0.068 0.159c-0.092 0.101 0.033 0.06-0.101 0.16-0.134 0.101-0.05 0.068-0.076 0.186-0.025 0.119 0.025 0.035 0.042 0.144 0.016 0.109 0.051 0.058 0.143 0.058 0.093 0 0.076-0.068 0.169-0.118 0.092-0.05 0.109-0.059 0.101-0.16-9e-3 -0.101 0.067-0.329 0.067-0.329 0.573-0.119 0.674-0.354 0.707-0.446 0.034-0.093 0.025-0.102-0.092-0.228-0.118-0.126 0.126-0.245 0.21-0.245s0.076-0.068 0.076-0.143c0-0.076 0.093-0.068 0.126-0.245 0.034-0.176 0.227-0.083 0.286-0.05 0.06 0.034 0.152-0.017 0.287-0.034 0.134-0.017 0.218 0.025 0.227 0.102 8e-3 0.076 0.034 0.127 0.109 0.127 0.076 0 0.143 0.017 0.143 0.093s0.127 0.033-0.135 0.161c-0.262 0.125-0.034 0.135 0 0.142 0.034 9e-3 0.068 9e-3 0.084 0.102 0.017 0.092 0.067 0.058 0.101 8e-3 0.034-0.051 0.144-0.084 0.295-0.16 0.152-0.076 0.287-0.253 0.287-0.253s0.117 0.521 0.067 0.666c-0.05 0.143-0.067 0.051-0.092 0.126-0.027 0.076 0.084 0.119 0.193 0.186s0.076 0.025 0.202 0.059c0.126 0.033 0.126 0.05 0.042 0.068-0.084 0.017-0.06 0.025-0.152 0.05-0.093 0.026-0.126 0.043-0.27 0.068s-0.034 0.101 0.042 0.101 0.151-0.06 0.244-0.101c0.093-0.042 0.168-0.077 0.168 0.025s0.101 0.051 0.126 0.092c0.025 0.043 0 0.093-0.025 0.202-0.026 0.109-0.084 0.109-0.32 0.126s-0.219 0.051-0.329 0.126c-0.109 0.076-0.134 0.084-0.177 0.084s-0.186 8e-3 -0.237 0c-0.05-8e-3 -0.227 0.025-0.328 0.017s-0.346 8e-3 -0.412 8e-3c-0.068 0-0.051 0.084-0.084 0.109-0.034 0.025-0.118 0.051-0.118 0.051s-0.091 0.039-0.149 0.063c-0.06 0.025-0.06 0.042-0.161 0.084s-0.134 0.118-0.227 0.16-0.152 0.093-0.152 0.093 0.033 0.06 0.092 0.051c7e-3 -1e-3 0.016-6e-3 0.027-0.013 0.034-0.02 0.084-0.062 0.139-0.109 0.091-0.079 0.193-0.166 0.23-0.166 0.067 0 0.186-0.093 0.337-0.143 0.152-0.051 0.194 9e-3 0.363 9e-3 0.168 0 0 0.143-0.051 0.202-0.05 0.059-0.05 0.051-0.109 0.084-0.06 0.034-0.06 0.136-0.068 0.194-8e-3 0.059 0.118 0.084 0.194 0.101s0.152 0 0.177-8e-3 0.109-8e-3 0.118-0.068c8e-3 -0.058 0.118-0.126 0.152-0.126s-0.093 0.152-9e-3 0.143 0.126 0.042 0.034 0.117c-0.093 0.077-0.177 0.126-0.21 0.126s-0.202 0.084-0.278 0.084-0.169 0.067-0.278 0.067-0.093 0-0.21 0.118c-0.118 0.118-0.177-0.076-0.084-0.202 0.092-0.126 0.346-0.185 0.286-0.177-0.06 9e-3 -0.126 0.06-0.21 0.076-0.036 8e-3 -0.067 0.018-0.093 0.032-0.031 0.019-0.051 0.042-0.051 0.069 0 0.035-0.048 0.038-0.11 0.037-0.029 0-0.061-2e-3 -0.092-2e-3 -0.101 0-0.135 0.093-0.253 0.118s-0.177 0.076-0.295 0.286c-0.084 0.151-0.052 0.18-0.027 0.186h-0.167c-0.068 0-0.152 0.068-0.328 0.093-0.177 0.026-0.152 8e-3 -0.16 0.11-9e-3 0.1-0.21 0.295-0.21 0.295l-0.084-0.034s0.025 0.084-0.101 0.244-0.076 0.06-0.084-0.219c-9e-3 -0.278-0.052 0.068-0.052 0.068s0 0.161 0 0.22c0 0.058-0.109 0.084-0.143 0.092-0.034 9e-3 0.101 0.017 0.101 0.017l0.017 0.101-0.144 0.068h0.109v0.109s-0.067 0.042-0.109 0.042-0.025 0.051-0.076 0.051-0.042 0.05-0.127 0.143c-0.083 0.093-0.076 0.042-0.219 0.101-0.144 0.059-0.169 0.118-0.447 0.312-0.277 0.194-0.168 0.447-0.168 0.472s0.034 0.237 0.034 0.505c0 0.27 9e-3 0.169-0.101 0.346-0.109 0.177-0.152 0-0.219-0.126-0.067-0.125-0.067-0.253-0.076-0.371-8e-3 -0.117-0.017-0.126 8e-3 -0.193 0.026-0.068-0.109-0.101-0.177-0.21-0.067-0.109-0.067 8e-3 -0.143 0.067-0.076 0.06-0.109-9e-3 -0.177-0.136-0.068-0.126-0.068 0.068-0.371 0s-0.22 0.06-0.22 0.06 0.017 0.093-0.076 0.161c-0.093 0.067-0.134 0-0.194-0.06-0.058-0.059-0.109 0-0.21 0h-0.336c-0.27 0-0.093 0.025-0.186 0.135-0.092 0.109-0.034 0.051-0.21 0.109-0.177 0.059-0.177 0.134-0.185 0.227-6e-3 0.069-0.026 0.142-0.04 0.203-5e-3 0.021-9e-3 0.041-0.012 0.059-8e-3 0.067-0.076 0.067-0.093 0.236-0.017 0.167-0.084 0.456-0.084 0.64 0 0.186 0.109 0.236 0.161 0.354 0.051 0.119 0.025 0.101 0.143 0.101s0.017 0.127 0.186 0.127 0.262-0.143 0.346-0.06c0.084 0.084 0.109 8e-3 0.092-0.024-0.017-0.033 0.017-0.076 0.102-0.135 0.084-0.059 0.109-0.144 0.109-0.303 0-0.16 0.328-0.152 0.547-0.152s0.093 0.135 0.042 0.202c-0.051 0.066-0.076 0.101-0.076 0.244 0 0.074 0 0.098-0.011 0.123-0.011 0.024-0.032 0.047-0.073 0.112-0.084 0.136-0.034 0.101-0.102 0.236-0.067 0.134-0.033 0.05-0.126 0.152-0.014 0.015-0.022 0.025-0.026 0.033-0.021 0.036 0.056-1e-3 0.121 7e-3 0.012 1e-3 0.022 5e-3 0.033 9e-3 0.076 0.042 0.117-0.025 0.354-0.033 0.236-8e-3 0.295 0.068 0.295 0.068s0.027 0.047 0.052 0.108c0.021 0.051 0.04 0.11 0.04 0.161 0 0-0.022 0.086-0.045 0.138-0.021 0.051 0 0.174-0.056 0.276-0.056 0.101-0.048 0.143-0.045 0.208 3e-3 0.064-0.064 0.037-0.123-5e-3 -0.06-0.042-0.076-0.067-0.124-0.127-0.047-0.059-0.05-0.059-0.093-0.068-0.042-9e-3 -6e-3 0.102 0.017 0.135 0.019 0.027-0.022 0.025-0.036 0.023-2e-3 -7e-3 -5e-3 -0.013-9e-3 -0.015-0.033-0.016-0.144-0.118-0.227-0.185-0.05-0.041-0.029-0.103-0.038-0.145-2e-3 -0.01-6e-3 -0.021-0.015-0.029-0.012-0.013-0.035-0.021-0.075-0.021-0.16 0-0.092-0.042-0.253-0.042-0.056 0-0.123-0.022-0.188-0.054-0.083-0.04-0.163-0.091-0.214-0.127-0.025-0.017-0.043-0.032-0.052-0.039-0.042-0.033-0.202-0.278-0.286-0.304-0.084-0.025-0.177 0.051-0.219 0.127s-0.211-0.051-0.346-0.084c-0.134-0.034-0.084-0.034-0.202-0.101-0.118-0.068-0.396-0.27-0.396-0.27s-0.152-0.034-0.235-0.042c-0.084-0.01-0.303-0.253-0.379-0.328-0.076-0.076 9e-3 -0.126 0.06-0.21 0.048-0.085 0.04-0.101 0.04-0.286zm-10.521 8.71v-2.074h2.094v2.12h-2.089c0-0.016-5e-3 -0.03-5e-3 -0.046zm5.533-3.167-0.547 1e-3v3.212h-1.8v-5.301h2.068c1.319 0 2.423 0.885 2.784 2.088h-2.505zm-3.438 0h-1.959c0.281-0.94 1.017-1.676 1.959-1.955v1.955zm0 4.306v1.646c-0.837-0.25-1.522-0.852-1.861-1.646h1.861zm1.091 0h1.8v1.777h-1.8v-1.777zm2.893 0h1.861c-0.338 0.794-1.025 1.396-1.861 1.646v-1.646zm0-1.093v-2.12h2.094v2.074c0 0.016-4e-3 0.031-5e-3 0.046h-2.089zm-4.713 11.9-0.493-0.742c-0.153-0.231-0.053-0.42 0.225-0.42h0.022c0.277 0 0.615 0.195 0.754 0.436l0.034 0.061c0.139 0.24 0.362 0.238 0.498-2e-3l0.03-0.055c0.137-0.242 0.47-0.438 0.746-0.438s0.374 0.187 0.219 0.416l-0.493 0.73c-0.155 0.231-0.156 0.604-2e-3 0.835l0.538 0.804c0.154 0.231 0.054 0.418-0.224 0.418h-0.04c-0.277 0-0.614-0.194-0.752-0.436l-0.053-0.094c-0.138-0.24-0.362-0.242-0.501-1e-3l-0.055 0.095c-0.139 0.242-0.477 0.436-0.755 0.436h-0.013c-0.278 0-0.377-0.187-0.222-0.416l0.533-0.793c0.156-0.229 0.157-0.604 4e-3 -0.834zm3.355 0-0.493-0.742c-0.153-0.231-0.053-0.42 0.225-0.42h0.023c0.278 0 0.616 0.195 0.754 0.436l0.035 0.061c0.138 0.24 0.362 0.238 0.498-2e-3l0.03-0.055c0.137-0.242 0.47-0.438 0.746-0.438s0.373 0.187 0.218 0.416l-0.493 0.73c-0.155 0.231-0.156 0.604-2e-3 0.835l0.538 0.804c0.154 0.231 0.054 0.418-0.225 0.418h-0.041c-0.277 0-0.614-0.194-0.752-0.436l-0.053-0.094c-0.137-0.24-0.362-0.242-0.501-1e-3l-0.055 0.095c-0.139 0.241-0.477 0.436-0.754 0.436h-0.014c-0.277 0-0.377-0.187-0.222-0.416l0.534-0.793c0.156-0.229 0.157-0.604 4e-3 -0.834zm3.354 0-0.492-0.742c-0.153-0.231-0.054-0.42 0.225-0.42h0.023c0.277 0 0.614 0.195 0.754 0.436l0.034 0.061c0.139 0.24 0.361 0.238 0.498-2e-3l0.03-0.055c0.136-0.242 0.469-0.438 0.746-0.438s0.373 0.187 0.218 0.416l-0.493 0.73c-0.155 0.231-0.156 0.604-2e-3 0.835l0.538 0.804c0.154 0.231 0.055 0.418-0.224 0.418h-0.041c-0.277 0-0.615-0.194-0.752-0.436l-0.053-0.094c-0.137-0.24-0.363-0.242-0.501-1e-3l-0.056 0.095c-0.138 0.241-0.477 0.436-0.754 0.436h-0.013c-0.278 0-0.377-0.187-0.222-0.416l0.533-0.793c0.156-0.229 0.157-0.604 4e-3 -0.834zm7.95-30.543-0.144 0.048 0.287 0.072-0.156 0.036s0.251 0.072 0.275 0.013c0.024-0.061 0.132-0.168 0.192-0.168s0.036 0.095 0.036 0.095l0.252 0.024-0.3 0.156s-0.264-0.012-0.335 0c-0.072 0.011-0.144 0.037-0.275 0.037-0.132 0-0.324 0.024-0.36 0.011-0.035-0.011 0.072-0.048 0.204-0.06 0.131-0.012-0.216-0.059-0.312-0.048-0.095 0.012-0.227-0.035-0.179-0.047s0.096-0.037 0.179-0.061-0.035-0.059-0.108-0.048c-0.071 0.013-0.311 0.084-0.359 0.084s-0.203-0.096-0.144-0.096c0.061 0 0.12-0.048 0.288-0.06 0.167-0.012 0.191-0.061 0.31-0.061 0.12 0 0.192-0.012 0.288 0s0.239-0.024 0.239-0.024-0.095 0.096-0.061 0.12c0.039 0.024 0.183-0.023 0.183-0.023zm3.22-0.228c-0.035 0-0.191 0.012-0.263 0.024s-0.192 0.012-0.24 0.012-0.155-0.096-0.155-0.096l-0.012-0.132s0.107-0.131 0.18-0.131h0.288s0.143-0.024 0.143-0.024 0.108 0.011 0.144 0.048c0.037 0.035 0.132 0.035 0.132 0.035l-0.024-0.083v-0.108s0.06-0.083 0.192-0.083 0.263 0.037 0.574-0.024c0.312-0.06 0.288-0.072 0.586-0.072s0.263 0 0.455 0 0.275 0 0.443 0 0.203 0 0.335 0c0.131 0 0.168-0.012 0.335 0s0.288 0.12 0.288 0.12l-0.228 0.037s-0.25 0.048-0.347 0.059c-0.096 0.012-0.275 0.06-0.371 0.06-0.095 0-0.191 0.131-0.274 0.144-0.084 0.012-0.168 0.012-0.275 0.012s-0.503-0.024-0.575 0-0.179 0.18-0.119 0.18c0.059 0 0.239-0.013 0.203 0-0.035 0.011-0.407 0.047-0.407 0.047l-0.048 0.06s-0.12 0.024-0.24 0.024-0.083 0.084-0.048 0.12c0.037 0.037-0.119 0.037-0.119 0.037l-0.432-0.012s-0.239 0.024-0.275 0.024c-0.037 0-0.432 0.024-0.432 0.024s-0.467 0.107-0.108 0.107c0.36 0 0.671-0.035 0.707-0.035 0.035 0 0.335 0.011 0.335 0.011s-0.011 0.12-0.192 0.144c-0.179 0.024-0.252 0.061-0.335 0.061-0.084 0-0.18-0.012-0.3-0.012h-0.335-0.252c-0.036 0-0.084-0.167-0.012-0.179 0.072-0.013 0.083-0.155 0.083-0.155h-0.24s0.083-0.156 0.168-0.12c0.084 0.036 0.252 0.084 0.335 0.084 0.084 0 0.131-0.049 0.18-0.049h0.192c0.072 0 0.144-0.072 0.191-0.072h0.168s0.061 0.036 0.096 0.036 0.048-0.06 0.048-0.06-0.107-0.063-0.143-0.063zm-1.209 0.862 0.288-0.155s0.144 0.107 0.12 0.144-0.12 0.107-0.12 0.107 0.083 0.155 0.131 0.155c0.047 0 0.047-0.347 0.095-0.371l0.155-0.095-0.107 0.131 0.131-0.048 0.192-0.011 0.227-0.012v0.083l-0.096 0.084-0.096 0.072s0.251-0.024 0.287-0.024 0.168-0.011 0.168-0.011-0.084-0.06-0.144-0.06-0.144-0.156 0.012-0.168c0.156-0.011 0.371 0.096 0.407 0.096 0.037 0-0.011 0.072-0.059 0.084-0.048 0.011 0.179 0.059 0.132 0.084-0.047 0.024 0.167 0.084 0.167 0.084l0.036 0.107s0.24 0.096 0.096 0.096 0.144 0.083 0.298 0.096c0.156 0.013-0.059 0.096-0.059 0.096s-0.288-0.011-0.275 0.061 0.155 0.012 0.312 0.083c0.155 0.072 0.12 0.083 0.335 0.181 0.216 0.096 0.132 0.155-0.072 0.166-0.203 0.013-0.144 0.072-0.24 0.144-0.095 0.072-0.108 0.048-0.131-0.024-0.024-0.072-0.167-0.18-0.227-0.18s-0.144 0.096-0.144 0.096 0 0.06 0.144 0.216-0.013 0.144-0.084 0.264c-0.072 0.119-0.179 0.048-0.263-0.06-0.083-0.107-0.179-0.048-0.024 0.107 0.155 0.156-0.024 0.132-0.024 0.167 0 0.036-0.204-0.072-0.276-0.084s-0.24-0.024-0.262-0.227c-0.024-0.204-0.371-0.12-0.456-0.12s-0.048 0.037-0.179 0.037c-0.132 0 0.095-0.192 0.095-0.192s0.12-0.037 0.179-0.06c0.061-0.024 0.216 0.036 0.299 0.036 0.084 0 0.096-0.072 0.096-0.072s0.083-0.179 0.191-0.191c0.107-0.012 0.18-0.072 0.18-0.157 0-0.084-0.168-0.131-0.192-0.227s-0.275-0.18-0.275-0.18l-0.107 0.083h-0.396c-0.203 0-0.467-0.048-0.467-0.048h-0.179l-0.011-0.084 0.227-0.059-0.215-0.013 0.011-0.144 0.169-0.083zm1.988 3.723 0.203-0.011c0.175-0.011-0.173 0.164-0.25 0.199 0.05-0.011 0.177 0.028 0.177 0.028l-0.083 0.096s0.037 0.048 0.12 0.012c0.084-0.036 0.215 0.036 0.215 0.036l-0.012 0.133v0.131l0.024 0.061s-0.011 0.072-0.06 0.108c-0.047 0.035-0.131 0.035-0.131 0.035l-0.12-0.071-0.024-0.107s-0.131 0.072-0.419 0.072-0.288 0-0.288 0 0.108-0.275 0.192-0.3c0.084-0.024 0.155-0.096 0.229-0.203 0.071-0.108 0.239-0.191 0.239-0.191l-0.012-0.028zm-2.275-3.735c-0.061 0.011-0.156 0.011-0.156 0.011l-0.179 0.12-0.048 0.132v0.121h-0.191l-0.144 0.107h-0.155l-0.048-0.121s0.107-0.095 0.179-0.119 0.203-0.156 0.251-0.156 0.072-0.156 0.12-0.18 0.216-0.131 0.275-0.168c0 0 0.395 0.084 0.359 0.096-0.036 0.013-0.204 0.145-0.263 0.157zm0.227-0.336s-0.108 0.024-0.157 0.012c-0.047-0.012-0.191 0-0.191 0l0.132-0.12s0.131-0.024 0.191-0.024c0.061 1e-3 0.025 0.132 0.025 0.132zm-0.131-0.442-0.12-0.012-0.036-0.06-0.167 0.012-0.012-0.061-0.132-0.036 0.228-0.036h0.132l0.12 0.06-0.013 0.133zm-0.455 0.251 0.011-0.083 0.192 0.035-0.048 0.097s-0.024 0.059-0.048 0.107-0.108 0.012-0.18 0.012h-0.167l-0.036-0.119s0.119-0.096 0.155-0.12 0.036 0.107 0.048 0.155c0.013 0.048 0.073-0.084 0.073-0.084zm-0.036 0.287c0.024 0.061-0.12 0.179-0.12 0.179h-0.108s0.037 0.179-0.024 0.191c-0.06 0.012-0.24 0.037-0.24 0.037s0 0.072-0.144 0.072-0.072-0.12-0.072-0.12l-0.143-0.072s0.061-0.144 0.167-0.096l0.108 0.048 0.048-0.131 0.107-0.06h0.179c0.062 1e-3 0.218-0.107 0.242-0.048zm-1.042 0.695c-0.096 0.048-0.288 0.048-0.323 0.048-0.036 0 0.156 0.096-0.048 0.096-0.203 0-0.168 0.059-0.36 0-0.192-0.06-0.18-0.132-0.239-0.096-0.059 0.037-0.288 0.132-0.527 0.132s-0.335 0.012-0.335 0.012l-0.013-0.107s-0.312 0.048-0.288-0.072 0.227-0.12 0.407-0.12 0.335 0 0.335 0-0.515-0.072-0.562-0.084c-0.048-0.011 0.048-0.048 0.168-0.048s-0.083-0.048-0.013-0.132c0.072-0.083 0.108-0.095 0.263-0.095s0.192-0.024 0.348-0.011c0.156 0.011 0.168-0.037 0.264 0.011 0.095 0.048 0.215 0.072 0.263 0.024s-0.051 0.076 0.012 0.048c0.06-0.026 0.078 0.033 0.083 0.07v-0.011c0-0.131 0.179-0.24 0.275-0.215 0.096 0.023 0.132 0.096 0.132 0.096l0.011-0.168h0.264s-0.024 0.048-0.072 0.048c0 0-0.264 0.204-0.312 0.359-0.044 0.155 0.363 0.167 0.267 0.215zm-1.268-0.766c0.035 0.024 0.107 0.155 0.107 0.155l-0.12 0.073c-0.037 0-0.586 0.072-0.802 0.203-0.215 0.132-0.239 0.144-0.299 0.144s-0.216-0.107-0.216-0.107-0.371-0.06-0.203-0.072c0.167-0.012 0.25-0.083 0.347-0.131 0.096-0.048 0.132-0.036 0.227-0.083 0.096-0.048 0.083-0.048 0.107-0.096s-0.036-0.084 0.107-0.06c0.144 0.024 0.384 0.024 0.467 0.024 0.086-3e-3 0.241-0.075 0.278-0.05zm0.035 9.876c0.037-0.037-0.035-0.156-0.035-0.156s-0.133 0.071-0.18 0.011c-0.048-0.059-0.179-0.084-0.274-0.084-0.096 0-0.061-0.095-0.131-0.107-0.072-0.012-0.347 0.119-0.383 0.119 0 0-0.013-0.047 0.048-0.107 0.059-0.061 0.215-0.157 0.371-0.168 0.155-0.013 0.144 0 0.228 0.072 0.083 0.072 0.108 0 0.442 0.192 0.335 0.191 0.575 0.395 0.575 0.395-0.192 0.084-0.611 0-0.575-0.011 0.036-0.012 0.036-0.108 0.036-0.108s-0.157-0.011-0.122-0.048zm-3.65 20.356-0.493-0.742c-0.153-0.231-0.053-0.42 0.225-0.42h0.023c0.277 0 0.614 0.195 0.754 0.436l0.035 0.061c0.138 0.24 0.361 0.238 0.498-2e-3l0.03-0.055c0.137-0.242 0.47-0.438 0.746-0.438 0.275 0 0.373 0.187 0.218 0.416l-0.493 0.73c-0.155 0.231-0.156 0.604-2e-3 0.835l0.538 0.804c0.154 0.231 0.054 0.418-0.224 0.418h-0.04c-0.278 0-0.615-0.194-0.752-0.436l-0.053-0.094c-0.138-0.24-0.362-0.242-0.501-1e-3l-0.055 0.095c-0.139 0.241-0.477 0.436-0.754 0.436h-0.014c-0.277 0-0.377-0.187-0.222-0.416l0.534-0.793c0.154-0.229 0.156-0.604 2e-3 -0.834zm10.061 0-0.493-0.742c-0.153-0.231-0.054-0.42 0.225-0.42h0.023c0.277 0 0.615 0.195 0.754 0.436l0.035 0.061c0.138 0.24 0.361 0.238 0.498-2e-3l0.03-0.055c0.136-0.242 0.47-0.438 0.746-0.438s0.373 0.187 0.218 0.416l-0.492 0.73c-0.156 0.231-0.157 0.604-2e-3 0.835l0.537 0.804c0.154 0.231 0.055 0.418-0.224 0.418h-0.041c-0.277 0-0.615-0.194-0.752-0.436l-0.053-0.094c-0.138-0.24-0.363-0.242-0.501-1e-3l-0.056 0.095c-0.138 0.241-0.477 0.436-0.754 0.436h-0.014c-0.278 0-0.377-0.187-0.222-0.416l0.533-0.793c0.158-0.229 0.159-0.604 5e-3 -0.834zm32.573-7.277c-0.085-0.018-0.145-0.061-0.145-0.061-0.024 0-0.151 0.043-0.161-0.025-8e-3 -0.066 0.077-0.108 0.204-0.201 0.126-0.093 0.496-0.244 0.63-0.312 0.136-0.066 0.312-0.102 0.447-0.261 0.135-0.16 0.211-0.127 0.211-0.127s0.102-0.151 0.178-0.168c0.075-0.018 0.084 0.034 0.084 0.034l0.017 0.083 0.145-0.067s-0.06 0.117-0.103 0.159c-0.042 0.043-0.185 0.16-0.235 0.186s-0.118 0.034-0.193 0.108c-0.075 0.077-0.06 0.136-0.11 0.136s-0.177 0-0.227 0.033c-0.05 0.035-0.108 0.111-0.219 0.187-0.109 0.076-0.15 0.21-0.312 0.243-0.161 0.036-0.128 0.071-0.211 0.053z"/>
  </g>
 </g>
</svg>
